<?xml version="1.0" standalone="no"?>
<!DOCTYPE svg PUBLIC "-//W3C//DTD SVG 1.1//EN" "http://www.w3.org/Graphics/SVG/1.1/DTD/svg11.dtd" >
<svg xmlns="http://www.w3.org/2000/svg" xmlns:xlink="http://www.w3.org/1999/xlink" version="1.1">
<metadata>
Created by FontForge 20150804 at Fri Dec 22 06:58:52 2017
 By cloudconvert
James Walsh
</metadata>
<defs>
<font id="academicons" horiz-adv-x="2048" >
  <font-face 
    font-family="academicons"
    font-weight="400"
    font-stretch="normal"
    units-per-em="2048"
    panose-1="0 0 0 0 0 0 0 0 0 0"
    ascent="1638"
    descent="-410"
    bbox="0 -162 2048 1625"
    underline-thickness="0"
    underline-position="0"
    unicode-range="U+0001-FFFD"
  />
<missing-glyph 
 />
    <glyph glyph-name=".notdef" unicode="&#xfffd;" 
 />
    <glyph glyph-name="glyph1" horiz-adv-x="0" 
d="M0 0v0v0v0z" />
    <glyph glyph-name="glyph1" horiz-adv-x="0" 
d="M0 0v0v0v0z" />
    <glyph glyph-name="uni0001" horiz-adv-x="0" 
d="M0 0v0v0v0z" />
    <glyph glyph-name="space" unicode=" " horiz-adv-x="1024" 
d="M0 0v0v0v0z" />
    <glyph glyph-name="uniE800" unicode="&#xe800;" 
d="M1113 -19v-45.5v-44.5h197.5h197h197h197.5v44.5v45.5q-40 8 -82 24t-57 59q-76 188 -152 376.5t-152 376.5t-151.5 376.5t-150.5 377.5q-54 1 -109 1h-109.5h-109t-109.5 -1q21 -45 39 -91.5t39 -92.5q-64 -166 -128.5 -332l-129 -332t-129.5 -331.5t-130 -331.5
q-14 -42 -55 -57t-80 -23v-44.5v-44.5h126h126h125.5h125.5v45v45q-40 6 -82 11.5t-74 32.5q-25 24 -20 58.5t15 62.5l50 130t52 130q76 -1 152 -1h152.5h152.5h152l42 -104l42 -104q14 -35 22.5 -73.5t-2.5 -76.5q-29 -49 -84.5 -55.5t-105.5 -10.5v0zM651 567
q29 77 59 154.5t59.5 154.5t59.5 154.5t58 155.5q31 -78 62 -155t62 -154.5l62 -155t62 -154.5q-61 -1 -121.5 -1h-121h-121t-120.5 1z" />
    <glyph glyph-name="uniE801" unicode="&#xe801;" horiz-adv-x="1755" 
d="M629 622q40 -1 80.5 -1h81h80.5t81 1q-21 51 -41.5 102.5t-41.5 103.5t-41.5 103.5t-40.5 102.5q-20 -51 -39.5 -103t-39.5 -103.5l-40 -103t-39 -102.5zM1659 1513q-48 48 -106.5 72t-126.5 24h-1097q-68 0 -126 -24t-106 -72q-49 -49 -73 -107t-24 -126v-1097
q0 -68 24 -126.5t73 -106.5q48 -48 106 -72t126 -24h1097q68 0 126.5 24t106.5 72q48 49 72.5 107t24.5 126v1097q0 68 -24.5 126t-72.5 107v0zM937 171v30v30q33 3 70 7.5t57 36.5q7 25 1 50.5t-15 49.5q-14 35 -28 69.5t-28 69.5h-101h-101.5h-101.5h-102
q-18 -43 -34.5 -86t-32.5 -87q-7 -19 -10.5 -41.5t13.5 -39.5q21 -18 49 -21.5t55 -7.5v-30v-30h-84h-84h-83.5h-83.5v30v30q25 5 52.5 14.5t37.5 38.5q43 110 86 220.5t86.5 221.5t86.5 221.5t85 221.5q-14 30 -26 61t-26 61q73 1 146 1t146 -1q49 -126 99.5 -251.5
t101.5 -251t101.5 -251t100.5 -251.5q11 -28 38.5 -39t54.5 -16v-30v-30h-131.5h-131.5h-131.5h-131.5v0z" />
    <glyph glyph-name="uniE802" unicode="&#xe802;" 
d="M1024 1609q-27 -18 -144.5 -124.5t-250.5 -231t-243.5 -233t-122.5 -130.5v-330q17 -1 127.5 102t241.5 229t246.5 235t145.5 121q30 -12 145.5 -121t246.5 -235t241.5 -229t127.5 -102v330q-12 22 -122.5 130.5t-243.5 233t-250.5 231t-144.5 124.5v0zM1024 903
q-27 -18 -144.5 -124.5t-250.5 -231t-243.5 -233t-122.5 -130.5v-330q17 -1 127.5 102t241.5 229t246.5 235t145.5 121q30 -12 145.5 -121t246.5 -235t241.5 -229t127.5 -102v330q-12 22 -122.5 130.5t-243.5 233t-250.5 231t-144.5 124.5v0z" />
    <glyph glyph-name="uniE803" unicode="&#xe803;" horiz-adv-x="1755" 
d="M1659 1513q-48 48 -106.5 72t-126.5 24h-1097q-68 0 -126 -24t-106 -72q-49 -49 -73 -107t-24 -126v-1097q0 -68 24 -126.5t73 -106.5q48 -48 106 -72t126 -24h1097q68 0 126.5 24t106.5 72q48 49 72.5 107t24.5 126v1097q0 68 -24.5 126t-72.5 107v0zM1385 146
q-12 0 -85 68.5t-160.5 152.5t-165 157t-96.5 81q-20 -8 -97.5 -81t-164.5 -157t-160.5 -152.5t-85.5 -68.5v220q9 15 82.5 87.5t162 155.5t167 154t96.5 83q18 -12 96.5 -83t167 -154t162 -155.5t81.5 -87.5v-220zM1385 617q-12 0 -85 68.5t-160.5 152.5t-165 156.5
t-96.5 80.5q-20 -8 -97.5 -80.5t-164.5 -156.5t-160.5 -152.5t-85.5 -68.5v220q9 15 82.5 87t162 155t167 154t96.5 84q18 -13 96.5 -84t167 -154t162 -155t81.5 -87v-220z" />
    <glyph glyph-name="uniE804" unicode="&#xe804;" 
d="M1024 1609l-878 -878l878 -877l878 877l-878 878v0zM1024 196q-111 0 -209 42t-171 115t-115.5 171t-42.5 209q0 112 42.5 210t115.5 171t171 115.5t209 42.5q112 0 209.5 -42.5t170.5 -115.5t115.5 -171t42.5 -210q0 -111 -42.5 -209t-115.5 -171t-170.5 -115
t-209.5 -42zM690 716q-4 -2 -8 -4.5t-6 -5.5q-3 -4 -4.5 -8.5t-1.5 -9.5q0 -8 2.5 -14t6.5 -9t10.5 -4.5t15.5 -1.5q5 0 9.5 1t9.5 4q5 2 9.5 5t8.5 7v48q-9 -1 -16.5 -2t-12.5 -1q-6 -1 -11.5 -2t-11.5 -3zM1024 1218q-100 0 -188 -38t-153.5 -103.5t-103.5 -153.5
t-38 -188q0 -101 38 -189t103.5 -153.5t153.5 -103.5t188 -38t188 38t153.5 103.5t103.5 153.5t38 189q0 100 -38 188t-103.5 153.5t-153.5 103.5t-188 38zM815 615h-73v24q-4 -3 -7 -5.5t-6 -5.5q-3 -2 -7 -4.5t-9 -5.5q-5 -2 -9.5 -4t-9.5 -3t-11 -2t-15 -1q-15 0 -28 5.5
t-23 15.5q-10 11 -15 24t-5 29q0 13 2.5 23.5t7.5 18.5t12.5 14t17.5 11t21.5 8t25.5 5q13 2 28 3.5t31 2.5v1q0 10 -4 16.5t-11 10.5t-17.5 5.5t-24.5 1.5q-7 0 -14.5 -1t-15.5 -4q-9 -2 -17.5 -5t-16.5 -6h-6v56q6 2 14.5 3.5t20.5 3.5q12 3 24 4t25 1q30 0 51.5 -5
t35.5 -15t21 -25.5t7 -35.5v-159v0zM1050 773h-9q-2 2 -5 4.5t-6 4.5q-3 3 -6.5 5t-7.5 4q-4 3 -8.5 4.5t-9.5 3.5q-5 1 -10.5 2t-11.5 1q-14 0 -25 -5t-18 -15q-8 -9 -12 -22t-4 -30t4.5 -30t12.5 -22q8 -8 18.5 -12.5t24.5 -4.5q7 0 13 1l12 2q5 2 9 3.5t8 4.5q4 2 7 4
t6 5q2 2 4.5 4t4.5 4h9v-62q-3 -2 -6.5 -3.5t-8.5 -3.5q-4 -1 -8 -2.5t-8 -2.5q-5 -2 -10 -3l-10 -2t-11 -1h-14q-14 0 -27.5 1.5t-25.5 5.5q-11 4 -21.5 9.5t-19.5 12.5q-9 8 -15.5 17.5t-11.5 20.5q-5 12 -7.5 25.5t-2.5 28.5q0 17 2.5 31t7.5 26q6 12 13 21.5t16 17.5
q9 7 19 12.5t22 8.5q12 4 24.5 5.5t25.5 1.5q9 0 19 -1t19 -3q10 -2 19.5 -6t19.5 -9v-62v0zM1367 615v116v16v13q-1 6 -2 11t-2 9q-2 3 -4.5 6t-5.5 4q-3 2 -7.5 3t-10.5 1q-4 0 -8.5 -1t-8.5 -3q-4 -1 -8.5 -4t-9.5 -6v-165h-72v116q0 9 -0.5 16t-0.5 13t-1 11t-3 9
q-1 3 -3.5 6t-5.5 4q-4 2 -8.5 3t-10.5 1q-4 0 -8.5 -1t-8.5 -3q-5 -2 -9 -4.5t-8 -5.5v-165h-73v233h73v-26q9 8 17.5 14t16.5 10q7 4 16 6t19 2q11 0 20.5 -2.5t16.5 -7.5q9 -5 15 -12.5t10 -17.5q11 10 21 17.5t19 12.5t18.5 7.5t18.5 2.5t16 -1t14 -4q6 -3 11.5 -6.5
t9.5 -8.5q5 -6 9 -12.5t6 -14.5q3 -8 4 -18t1 -23v-151h-73v0z" />
    <glyph glyph-name="uniE805" unicode="&#xe805;" horiz-adv-x="1755" 
d="M429 733q0 -93 35.5 -174.5t96.5 -142.5t142.5 -96t174.5 -35t174.5 35t142.5 96t96 142.5t35 174.5t-35 174.5t-96 142.5t-142.5 96.5t-174.5 35.5t-174.5 -35.5t-142.5 -96.5t-96.5 -142.5t-35.5 -174.5v0zM878 1137q83 0 156.5 -32t128 -86.5t86 -128t31.5 -156.5
t-31.5 -156.5t-86 -128t-128 -86.5t-156.5 -32q-84 0 -157 32t-128 86.5t-86.5 128t-31.5 156.5t31.5 156.5t86.5 128t128 86.5t157 32v0zM758 654q7 -6 15.5 -11t18.5 -8t21 -4.5t23 -1.5q7 0 12 0.5t9 0.5l8 2l8 2t7.5 2.5t6.5 2.5q4 1 7 2.5l5 2.5v52h-8q-1 -2 -3 -3.5
t-4 -3.5t-4.5 -4t-5.5 -3q-3 -2 -7 -3.5t-8 -3.5q-4 -1 -9.5 -1.5t-10.5 -0.5q-12 0 -21 3.5t-15 10.5q-7 7 -10.5 18t-3.5 26q0 13 3 24t10 19q6 8 15 12t21 4q5 0 9.5 -0.5t8.5 -1.5q4 -2 8 -3.5t7 -3.5q3 -1 6 -3l6 -4q2 -2 4.5 -4t3.5 -4h8v52q-8 4 -16 7t-16 5t-16 3
t-16 1q-11 0 -21 -1.5t-20 -4.5t-18.5 -7.5t-15.5 -10.5q-8 -6 -14 -14t-10 -18q-5 -10 -7 -21.5t-2 -25.5q0 -13 2 -24.5t6 -20.5q4 -10 9.5 -18t13.5 -14v0zM594 757q-11 -1 -21 -4t-18 -7t-14 -9t-11 -12q-4 -7 -6 -15.5t-2 -19.5q0 -13 4 -24t13 -20q8 -8 18.5 -12.5
t23.5 -4.5q7 0 12.5 0.5t9.5 1.5t7.5 2.5t8.5 3.5q4 2 7 4l6 4q2 3 5 5t6 5v-21h61v133q0 17 -6 29.5t-18 21.5q-11 8 -29 12t-44 4q-10 0 -20 -1l-20 -2l-17.5 -3.5t-11.5 -3.5v-47h5q7 3 14 5.5t14 4.5t13 3t12 1q12 0 20.5 -1.5t14.5 -4.5t9 -8.5t3 -13.5v-1
q-13 -1 -25 -2t-24 -3v0zM643 685q-3 -3 -7 -5.5t-8 -4.5t-8 -3t-8 -1q-7 0 -12.5 1.5t-9.5 3.5q-3 3 -5 7.5t-2 11.5q0 5 1 8.5t4 6.5q2 3 5 5t7 3q4 2 9 3t9 1q5 1 11 2t14 1v-40v0zM1659 1513q-48 48 -106.5 72t-126.5 24h-1097q-68 0 -126 -24t-106 -72
q-49 -49 -73 -107t-24 -126v-1097q0 -68 24 -126.5t73 -106.5q48 -48 106 -72t126 -24h1097q68 0 126.5 24t106.5 72q48 49 72.5 107t24.5 126v1097q0 68 -24.5 126t-72.5 107v0zM878 0l-732 731l732 732l731 -732l-731 -731v0zM992 772q3 2 6.5 4t7.5 4q3 2 7 2.5t7 0.5
q5 0 9 -0.5t7 -1.5l4 -4t4 -5q1 -3 2 -7.5t1 -9.5v-11v-13v-97h61v138q4 3 8 5t7 4q3 1 6.5 1.5t7.5 0.5q5 0 8.5 -0.5t6.5 -1.5q3 -2 5 -4t3 -5t2 -7.5t1 -9.5q1 -5 1 -11v-13v-97h60v127q0 10 -1 18.5t-3 14.5q-2 7 -5 12.5t-7 9.5q-4 5 -8.5 8t-9.5 5q-5 3 -11.5 4
t-12.5 1q-8 0 -16 -2t-16 -7q-7 -4 -15.5 -10.5t-17.5 -14.5q-3 9 -8 15t-12 10q-7 5 -15 7t-16 2q-9 0 -16.5 -2t-13.5 -5q-7 -4 -14 -9t-14 -11v21h-61v-194h61v138v0z" />
    <glyph glyph-name="uniE806" unicode="&#xe806;" 
d="M1793 1090q78 -126 99.5 -266.5t-9.5 -274.5t-111.5 -251t-206.5 -195q-99 -63 -208.5 -89t-218 -19t-211.5 46.5t-190 109.5l35 21q82 -63 178 -98.5t197.5 -41t203 19.5t194.5 83q119 74 195.5 184.5t105.5 237.5t9 260t-95 252q-51 82 -116 144t-141 103t-160.5 59.5
t-174.5 13.5q-49 -3 -85 -13l-36 -10l-2 11.5t-5 20.5q110 30 215.5 26.5t202 -41.5t181.5 -111t154 -182v0zM486 555l34 22q-12 60 -13.5 118.5t7 115t27.5 111.5t48 108l-11 11.5t-19 15.5q-32 -57 -52.5 -118.5t-30 -125t-7 -128.5t16.5 -130v0zM1384 510q-3 4 -5 12
t-3 20v29.5v24.5v214q0 43 -15 71.5t-45 43.5q-30 16 -64.5 23.5t-72.5 7.5q-59 0 -101 -15.5t-66 -46.5q-15 -20 -24 -45t-11 -56h118q2 14 6.5 24.5t11.5 18.5q9 11 24.5 16.5t37.5 5.5q19 0 34 -3t25 -8q10 -6 15 -16t5 -24q0 -12 -6.5 -20.5t-19.5 -14.5
q-7 -3 -19.5 -5.5t-29.5 -4.5l-42 -6q-35 -4 -62 -11.5t-46 -18.5q-33 -19 -50 -50t-17 -74q0 -33 10.5 -59t31.5 -44t47 -27t58 -9q25 0 47.5 5.5t42.5 17.5q17 9 31.5 21t27.5 25q0 -8 1 -15t2 -13t3 -13t5 -14h133v18q-6 3 -10.5 6.5t-7.5 8.5v0zM1254 659
q-1 -30 -9.5 -51.5t-25.5 -32.5q-17 -12 -35.5 -17.5t-38.5 -5.5q-13 0 -23.5 3.5t-19.5 9.5q-9 7 -13.5 18.5t-4.5 27.5q0 17 7.5 30t21.5 22q9 4 23 8.5t33 7.5l28 5q11 2 19 4.5t14 4.5t12 5t12 7v-46v0zM907 1294q0 72 -51.5 123.5t-123.5 51.5q-73 0 -124.5 -51.5
t-51.5 -123.5q0 -73 51.5 -124.5t124.5 -51.5q72 0 123.5 51.5t51.5 124.5zM1260 1229q-58 9 -115 5.5t-110 -18.5q-15 -57 -49.5 -105.5t-87.5 -81.5q-40 -25 -83.5 -37t-86.5 -11q-26 -42 -43.5 -89.5t-25.5 -99.5q-7 -42 -6.5 -83t6.5 -80.5t18 -77.5t30 -73l-89 -55
q-21 11 -46.5 10.5t-47.5 -15.5l-335 -217q-33 -21 -41 -59t13 -70t58.5 -40t70.5 13l335 218q22 14 33 37.5t9 47.5l86 54q29 -41 66 -76t80.5 -62t93 -46t103.5 -27q107 -17 208 9t182.5 85t137.5 147t73 196q17 107 -9 208t-85 182.5t-147 137.5t-196 73v0zM1550 644
q-13 -77 -52.5 -140t-98 -105.5t-131 -61t-149.5 -6.5t-140 52t-105.5 98.5t-61 130.5t-6.5 149q13 77 52.5 140t98 105.5t131 61t149.5 6.5t140 -52t105.5 -98.5t61 -130.5t6.5 -149v0z" />
    <glyph glyph-name="uniE807" unicode="&#xe807;" horiz-adv-x="1755" 
d="M831 437q61 -10 118.5 4.5t103.5 48.5t78 84t41 111q10 61 -4.5 118t-48.5 103.5t-84 78t-111 41.5t-118 -5t-103.5 -48.5t-78 -83.5t-41.5 -111t5 -118.5t48.5 -103.5t83.5 -78t111 -41zM922 846q-8 4 -19.5 6t-27.5 2q-17 0 -29.5 -4t-19.5 -13q-5 -6 -8.5 -14.5
t-5.5 -19.5h-93q1 25 8 45t19 35q19 25 52 37t80 12q31 0 58 -6t51 -18t35.5 -35t11.5 -56v-170q0 -9 0.5 -19.5t0.5 -23.5q1 -9 2 -15.5t4 -10.5q2 -3 5.5 -6t8.5 -5v-14h-105q-3 6 -4.5 11t-1.5 10q-1 5 -2 10.5t-1 11.5q-10 -10 -21.5 -19.5t-25.5 -17.5
q-15 -9 -33 -13.5t-38 -4.5q-25 0 -46 7.5t-37 21.5q-17 14 -25 34.5t-8 46.5q0 35 13 59.5t40 39.5q14 9 35.5 15t49.5 9l34 4q13 2 22.5 4t15.5 5q11 4 16 11t5 16q0 12 -4 19.5t-12 12.5v0zM893 717l-22 -4q-16 -3 -27 -6t-18 -7q-11 -7 -16.5 -17t-5.5 -24
q0 -13 3.5 -22t10.5 -14q7 -6 15.5 -8.5t18.5 -2.5q15 0 30 4.5t28 13.5t20 26t8 41v36q-5 -3 -9.5 -5.5t-9.5 -3.5q-5 -2 -11.5 -3.5t-14.5 -3.5v0zM1659 1513q-48 48 -106.5 72t-126.5 24h-1097q-68 0 -126 -24t-106 -72q-49 -49 -73 -107t-24 -126v-1097q0 -68 24 -126.5
t73 -106.5q48 -48 106 -72t126 -24h1097q68 0 126.5 24t106.5 72q48 49 72.5 107t24.5 126v1097q0 68 -24.5 126t-72.5 107v0zM524 1339q57 0 98 -40.5t41 -98.5t-41 -98.5t-98 -40.5q-58 0 -99 40.5t-41 98.5t41 98.5t99 40.5zM386 1013q7 -4 16 -13l9 -9
q-24 -42 -39 -85.5t-21.5 -88.5t-5 -91.5t10.5 -93.5l-27 -17q-12 51 -13.5 102.5t6 102t24 99t40.5 94.5v0zM439 383l-266 -173q-25 -17 -55 -10.5t-47 32.5q-16 25 -10 55t32 46l266 173q18 11 38 11.5t37 -8.5l70 44q-28 56 -38 119.5t0 129.5q7 41 20.5 79t34.5 71
q34 0 68.5 9t65.5 29q43 26 70.5 65t38.5 83q43 12 88 15t91 -4q85 -14 155 -58t117 -109t67.5 -145t6.5 -165q-13 -85 -57.5 -155t-109 -117t-144.5 -67.5t-166 -6.5q-42 7 -81 21.5t-73.5 36t-64 49t-53.5 60.5l-67 -43q1 -19 -7.5 -37.5t-26.5 -29.5v0zM1185 256
q-79 -50 -166 -70.5t-173 -15t-167.5 37t-150.5 86.5l28 17q64 -50 140.5 -78t157 -32.5t161 15t154.5 65.5q94 59 154.5 147t84 188.5t7.5 206t-75 199.5q-41 65 -92.5 114.5t-112 81.5t-127.5 47t-138 11q-39 -2 -67.5 -10l-28.5 -8l-2 9t-4 16q87 24 171 21t160.5 -33
t144 -88t121.5 -145q63 -99 80 -210.5t-8 -218t-89 -199t-163 -154.5v0z" />
    <glyph glyph-name="uniE808" unicode="&#xe808;" 
d="M894 947q0 -53 -17.5 -90.5t-42.5 -37.5t-42.5 37.5t-17.5 90.5q0 54 17.5 91.5t42.5 37.5t42.5 -37.5t17.5 -91.5zM1274 947q0 -53 -17.5 -90.5t-42.5 -37.5t-42.5 37.5t-17.5 90.5q0 54 17.5 91.5t42.5 37.5t42.5 -37.5t17.5 -91.5zM1374 667h-63q0 -26 8.5 -48.5
t23.5 -40.5q-8 -20 -35 -41.5t-69 -39.5t-97 -29.5t-118 -11.5t-118 11.5t-97 29.5t-69 39.5t-35 41.5q15 18 23.5 40.5t8.5 48.5h-63q0 -34 -26 -58t-62 -24v-63q18 0 35 4.5t33 11.5q17 -29 52 -55.5t83 -46.5t108 -31.5t127 -11.5t127 11.5t108 31.5t83 46.5t52 55.5
q16 -7 33 -11.5t35 -4.5v63q-36 0 -62 24t-26 58v0zM1910 165q-14 26 -28.5 35.5t-37.5 16.5q-20 6 -51.5 3t-61.5 -14q-7 -3 -13.5 -7t-12.5 -8q-20 -10 -33.5 -7.5t-28.5 17.5q-8 10 -33.5 33t-62.5 58q38 45 67.5 95.5t50.5 106t32 115.5t11 122q0 63 -11 123t-32 115.5
t-50.5 106t-67.5 95.5q37 34 62.5 57.5t33.5 32.5q15 16 28.5 18.5t33.5 -8.5q6 -3 12.5 -7t13.5 -7q30 -11 61.5 -14t51.5 3q23 7 37.5 16t28.5 36q9 20 11.5 39.5t-3.5 42.5q-7 22 -30.5 36.5t-56.5 20.5q-27 5 -24 12.5t2 30.5q0 36 -13.5 63.5t-44.5 46.5
q-22 14 -47.5 17t-51.5 2q-34 -1 -65.5 -16.5t-39.5 -35.5q-11 -25 -3.5 -42.5t17.5 -34.5q12 -22 7.5 -44t-20.5 -41q-17 -20 -52.5 -56.5t-59.5 -62.5q-43 32 -91 58t-100 44t-107.5 27.5t-113.5 9.5t-113.5 -9.5t-107.5 -27.5t-100 -44t-91 -58q-24 26 -59.5 62.5
t-52.5 56.5q-16 19 -20.5 41t7.5 44q10 17 17.5 34.5t-3.5 42.5q-8 21 -39.5 36t-65.5 16q-26 1 -51.5 -2t-48.5 -17q-30 -19 -43.5 -46.5t-14.5 -63.5q0 -23 3 -30.5t-24 -12.5q-33 -6 -56.5 -20.5t-30.5 -36.5q-6 -23 -3.5 -42.5t11.5 -39.5q14 -27 28.5 -36t37.5 -16
q20 -6 51.5 -3t61.5 14q7 3 13.5 7t12.5 7q20 11 33.5 8.5t28.5 -17.5q8 -10 33.5 -33.5t62.5 -57.5q-38 -45 -67.5 -95.5t-50.5 -106t-31.5 -115.5t-10.5 -123q0 -62 10.5 -122t31.5 -115.5t50.5 -106t67.5 -95.5q-37 -35 -62.5 -58t-33.5 -33q-15 -15 -28.5 -17.5
t-33.5 7.5q-6 4 -12.5 8t-13.5 7q-30 11 -61.5 14t-51.5 -3q-23 -7 -37.5 -16.5t-28.5 -35.5q-9 -20 -11.5 -39.5t3.5 -42.5q7 -23 30.5 -37.5t56.5 -19.5q27 -5 24 -12.5t-2 -30.5q0 -36 13.5 -63.5t44.5 -46.5q22 -14 47.5 -17t51.5 -2q34 1 65.5 16t40.5 36
q10 24 2.5 41.5t-17.5 35.5q-12 22 -7.5 44t20.5 40q17 21 52.5 57.5t59.5 62.5q43 -33 91 -58.5t100 -43.5t107.5 -27.5t113.5 -9.5t113.5 9.5t107.5 27.5t100 43.5t91 58.5q24 -26 59.5 -62.5t52.5 -57.5q16 -18 20.5 -40t-7.5 -44q-9 -18 -17 -35.5t3 -41.5
q8 -21 39.5 -36t66.5 -16q25 -1 50.5 2t48.5 17q30 19 43.5 46.5t14.5 63.5q0 23 -2.5 30.5t23.5 12.5q33 5 56.5 19.5t30.5 37.5q6 23 3.5 42.5t-11.5 39.5v0zM1024 90q-133 0 -249.5 50.5t-203.5 137.5t-137.5 204t-50.5 249q0 133 50.5 249.5t137.5 204t203.5 138
t249.5 50.5t249.5 -50.5t203.5 -138t137.5 -204t50.5 -249.5q0 -132 -50.5 -249t-137.5 -204t-203.5 -137.5t-249.5 -50.5z" />
    <glyph glyph-name="uniE809" unicode="&#xe809;" horiz-adv-x="1755" 
d="M878 1156q-89 0 -166.5 -34t-135.5 -92t-92 -135.5t-34 -166.5q0 -88 34 -166t92 -136t135.5 -91.5t166.5 -33.5q88 0 166 33.5t136 91.5t91.5 136t33.5 166q0 89 -33.5 166.5t-91.5 135.5t-136 92t-166 34v0zM1004 958q17 0 28.5 -25t11.5 -61q0 -35 -11.5 -60.5
t-28.5 -25.5q-16 0 -28 25.5t-12 60.5q0 36 12 61t28 25v0zM751 958q17 0 28.5 -25t11.5 -61q0 -35 -11.5 -60.5t-28.5 -25.5q-16 0 -28 25.5t-12 60.5q0 36 12 61t28 25zM1170 589q-12 0 -23.5 2.5t-22.5 8.5q-23 -40 -89.5 -68.5t-156.5 -28.5t-157 28.5t-90 68.5
q-10 -6 -21.5 -8.5t-24.5 -2.5v42q25 0 42 16t17 38h43q0 -17 -6 -32t-16 -27q11 -27 69.5 -54t143.5 -27q84 0 143 27t70 54q-11 12 -16.5 27t-5.5 32h42q0 -22 17.5 -38t41.5 -16v-42zM1659 1510q-48 48 -106.5 72t-126.5 24h-1097q-68 0 -126 -24t-106 -72
q-49 -49 -73 -107t-24 -126v-1097q0 -68 24 -126.5t73 -106.5q48 -48 106 -72t126 -24h1097q68 0 126.5 24t106.5 72q48 49 72 107t24 126v1097q0 68 -24 126t-72 106v1zM1474 296q-5 -15 -21 -24.5t-37 -13.5q-18 -3 -16 -8t1 -21q0 -24 -9 -42t-29 -31q-15 -9 -32 -11
t-34 -2q-23 1 -44 11t-27 24q-7 16 -2 28t12 23q8 15 5 29.5t-14 27.5t-34.5 37.5t-40.5 41.5q-57 -43 -127 -67.5t-147 -24.5q-78 0 -148 24.5t-127 67.5q-16 -17 -39.5 -41.5t-35.5 -37.5q-10 -13 -13.5 -27.5t5.5 -29.5q6 -11 11 -23t-2 -28q-6 -14 -26.5 -24t-43.5 -11
q-17 0 -34 2t-32 11q-20 13 -29.5 31t-9.5 42q0 16 1.5 21t-15.5 8q-22 4 -38 13.5t-20 24.5t-2.5 28t7.5 27q9 17 19 23.5t25 10.5q13 4 34 2.5t42 -9.5q4 -2 8.5 -4.5t8.5 -5.5q13 -7 22 -5.5t19 12.5q6 6 22.5 21.5t41.5 39.5q-25 29 -45 63t-33.5 71t-21 77t-7.5 81
q0 42 7.5 82t21 77t33.5 70.5t45 63.5q-25 23 -41.5 39t-22.5 22q-10 10 -19 11.5t-22 -5.5q-4 -2 -8.5 -4.5t-8.5 -4.5q-21 -8 -42 -10t-34 2q-15 5 -25 11t-19 24q-6 14 -7.5 26.5t2.5 27.5q4 16 20 25.5t38 13.5q17 3 15.5 8t-1.5 21q0 23 9.5 41.5t29.5 31.5q15 9 32 11
t34 1q23 -1 43.5 -11t26.5 -23q7 -17 2 -28.5t-11 -23.5q-9 -15 -5.5 -29.5t13.5 -26.5q12 -13 35.5 -38t39.5 -42q57 44 127 68.5t148 24.5q77 0 147 -24.5t127 -68.5q17 17 40.5 42t34.5 38q11 12 14 26.5t-5 29.5q-7 12 -12 23.5t2 28.5q6 13 26.5 23t44.5 11q16 1 33 -1
t33 -11q20 -13 29 -31.5t9 -41.5q1 -16 -1 -21t15 -8q22 -4 38 -13.5t20 -25.5q5 -15 3 -27.5t-7 -26.5q-10 -18 -19.5 -24t-25.5 -11q-13 -4 -34 -2t-41 10q-5 2 -9 4.5t-9 4.5q-13 7 -22 5.5t-19 -11.5q-5 -6 -22 -22t-41 -39q25 -30 44.5 -63.5t33.5 -70.5t21 -77t7 -82
q0 -41 -7 -81t-21 -77t-33.5 -71t-44.5 -63q24 -24 41 -39.5t22 -21.5q10 -11 19 -12.5t22 5.5q5 3 9 5.5t9 4.5q20 8 41 9.5t34 -2.5q16 -4 25.5 -10.5t19.5 -23.5q5 -14 7 -27t-2 -28v0z" />
    <glyph glyph-name="uniE810" unicode="&#xe810;" 
d="M1536 670q20 27 39.5 50.5t35.5 49.5q21 34 46.5 75.5t49.5 80.5t43 71t26 47q8 15 18 25.5t18 11.5q7 0 15.5 -0.5t16.5 -5.5q8 -4 12.5 -16.5t-1.5 -36.5q-5 -23 -9.5 -35.5t-11.5 -29.5q-23 -49 -50 -94.5t-57 -88.5t-63 -84.5t-68 -81.5q-13 -16 -14 -28.5t6 -30.5
q31 -73 60.5 -147.5t60.5 -148.5q10 -24 22 -48t25 -47q13 -24 27.5 -36.5t52.5 -11.5q16 0 39.5 -1t25.5 -24q3 -25 -20 -32.5t-41 -11.5q-20 -4 -34 -5.5t-35 -1.5q-49 -1 -99 19t-74 63q-24 44 -40.5 83t-39.5 99q-14 39 -30.5 79t-33.5 84q-10 -10 -18.5 -18t-14.5 -18
q-37 -50 -66.5 -94.5t-53.5 -84.5t-43 -74t-36 -62q-26 -45 -37 -64.5t-41 -12.5q-29 11 -27.5 39.5t3.5 38.5q13 56 48 110.5t67 102.5q36 55 78 105t81 102q6 8 9 20.5t0 20.5q-18 44 -36 87t-36 86.5t-36.5 86.5t-36.5 86q-20 43 -45.5 67.5t-104.5 21.5q-13 2 -20.5 7
t-7.5 20q0 18 10 25.5t19 10.5q44 13 88 16.5t83 -7.5t72 -39t57 -78q28 -61 54.5 -124t53.5 -125q4 -10 8.5 -19.5t10.5 -23.5v0zM146 365q21 16 35.5 30.5t22.5 28.5t12 31t4 37v804q0 17 -3.5 33.5t-10.5 32.5q-4 8 -9 15t-9 14q-5 6 -13.5 16.5t-20.5 24.5h367
q89 0 159 -18t121 -55q51 -36 76.5 -86t25.5 -115q0 -50 -17.5 -92.5t-51.5 -76.5q-19 -19 -38 -33t-37 -23q-19 -9 -48 -18t-69 -19l99 -131q16 -21 37 -46.5t48 -56.5q29 -33 61 -67t66 -69q30 -32 54 -55t41 -37q18 -15 44.5 -32t61.5 -37h-240q-29 0 -61 17t-66 51
q-40 41 -80.5 91t-82.5 109q-28 38 -52.5 72.5t-46.5 66.5q-17 25 -41.5 63t-56.5 89q70 10 122 28.5t87 45.5t52.5 62.5t17.5 79.5q0 83 -59 124.5t-177 41.5h-59v-811q0 -21 4 -38.5t12 -30.5q7 -14 22 -29t38 -32h-341v0z" />
    <glyph glyph-name="uniE811" unicode="&#xe811;" horiz-adv-x="1755" 
d="M1659 1513q-48 48 -106.5 72t-126.5 24h-1097q-68 0 -126 -24t-106 -72q-49 -49 -73 -107t-24 -126v-1097q0 -68 24 -126.5t73 -106.5q48 -48 106 -72t126 -24h1097q68 0 126.5 24t106.5 72q48 49 72.5 107t24.5 126v1097q0 68 -24.5 126t-72.5 107v0zM805 487
q-20 0 -41.5 11.5t-43.5 34.5q-27 27 -54 60t-55 73q-18 25 -35 48t-31 44l-27.5 42.5t-37.5 59.5q93 13 139.5 49t46.5 95q0 55 -39.5 83t-117.5 28h-40v-541q0 -14 2.5 -25.5t8.5 -20.5q5 -9 15 -19.5t25 -21.5h-227q13 10 23 20t15 20q6 9 8.5 20.5t2.5 24.5v536
q0 11 -2.5 22t-6.5 22q-3 5 -6.5 9.5t-6.5 9.5q-3 4 -8.5 11t-13.5 16h244q60 0 106.5 -12t80.5 -36t51 -57.5t17 -76.5q0 -34 -11.5 -62t-34.5 -51q-12 -12 -25 -21.5t-25 -15.5t-31.5 -12t-46.5 -13l66 -88q11 -13 25 -30t31 -38q20 -22 41.5 -44.5t43.5 -45.5
q21 -22 36.5 -37t27.5 -25t29.5 -21.5t40.5 -24.5h-159v0zM1422 271q-14 -2 -23 -3.5t-23 -1.5q-33 0 -66.5 13t-49.5 42t-27 55t-26 66q-10 27 -20.5 53.5t-22.5 55.5q-6 -7 -12 -12t-10 -12q-49 -66 -79.5 -119t-52.5 -91q-17 -30 -24.5 -43t-28.5 -9q-18 8 -17.5 27
t2.5 26q8 37 31.5 73.5t44.5 68.5q24 36 52 69.5t55 68.5q4 5 6 13.5t-1 13.5q-23 58 -47.5 115.5t-48.5 115.5q-14 28 -31 44.5t-69 14.5q-9 1 -14 4.5t-5 13.5q0 12 6.5 17t12.5 7q60 18 114.5 6.5t85.5 -78.5q19 -41 36.5 -82.5t35.5 -83.5q3 -6 6 -12.5t7 -15.5
q14 17 27 33t23 33q28 45 64 104t46 79q5 10 12 17t12 7q5 1 10.5 0.5t10.5 -3.5q6 -3 8.5 -11.5t-0.5 -24.5q-4 -15 -7 -23.5t-8 -19.5q-29 -65 -70.5 -122t-87.5 -111q-8 -10 -9 -18.5t4 -20.5q20 -49 40 -98.5t40 -98.5q7 -17 15 -32.5t17 -31.5q8 -16 18 -24t35 -8
q11 0 26.5 -0.5t17.5 -16.5t-13.5 -21t-27.5 -8v0z" />
    <glyph glyph-name="uniE812" unicode="&#xe812;" 
d="M439 146v1171h292v292h-585v-1755h878v292h-585zM1609 1609h-585v-292h585v-1171h-292v-292h585v1755h-293z" />
    <glyph glyph-name="uniE813" unicode="&#xe813;" horiz-adv-x="1755" 
d="M1659 1513q-48 48 -106.5 72t-126.5 24h-1097q-68 0 -126 -24t-106 -72q-49 -49 -73 -107t-24 -126v-1097q0 -68 24 -126.5t73 -106.5q48 -48 106 -72t126 -24h1097q68 0 126.5 24t106.5 72q48 49 72.5 107t24.5 126v1097q0 68 -24.5 126t-72.5 107v0zM878 146h-585v1171
h390v-195h-195v-781h390v-195v0zM1463 146h-390v195h195v781h-390v195h585v-1171v0z" />
    <glyph glyph-name="uniE814" unicode="&#xe814;" 
d="M1901 746q0 5 -0.5 10t-0.5 10v0v0v0v0q-5 56 -23 107.5t-50 98.5q-13 21 -29 40t-34 36q-26 25 -56 46t-64 37q-51 24 -107 36.5t-116 12.5h-12t-12 -1q-43 -2 -83.5 -10t-78.5 -22q-39 -14 -72.5 -32t-60.5 -41q-6 -4 -12 -9.5t-13 -11.5l-6 -6l-9 -9v0l-4 -4l-2 -2
l-10 -11q-6 -7 -11 -13t-10 -13l-1 1v0q-10 -13 -19.5 -26t-16.5 -25q-5 -8 -10 -15.5t-9 -15.5l-84 -170v0l-4 -8l-10 -19q-14 -28 -28.5 -55t-31.5 -50q-37 -41 -79.5 -60.5t-96.5 -19.5h-7.5h-7.5q-32 1 -60 9t-53 22q-2 2 -4.5 3.5t-5.5 3.5q-20 13 -35.5 30t-26.5 39
q-13 24 -19 49t-5 51v1.5v0.5q2 42 18 75.5t48 61.5l16 12t17 11q1 1 2 1.5t2 1.5q24 12 51.5 18.5t58.5 6.5h13q49 -2 87.5 -17.5t68.5 -45.5l127 228q-23 15 -48.5 28t-53.5 24q-1 0 -2 0.5t-3 0.5q-3 1 -6.5 2.5t-6.5 2.5q-30 10 -61.5 16.5t-64.5 8.5v0q-1 0 -1.5 0.5
t-1.5 0.5q-5 0 -10 0.5t-10 0.5q-6 1 -11 1h-11h-4q-60 0 -115.5 -12.5t-105.5 -36.5q-57 -28 -103 -67.5t-80 -91.5q-34 -51 -53 -108t-21 -118q0 -5 -0.5 -10.5t-0.5 -10.5q0 -43 8 -83t23.5 -77.5t39 -72.5t54.5 -66q32 -34 69.5 -59.5t79 -43t88 -27.5t97.5 -12
q6 -1 12.5 -1h13.5q57 0 110 10.5t100 30.5q12 5 23.5 11t23.5 12q6 4 12.5 8t12.5 8l6 4l10 7q9 6 17.5 13t16.5 15l4 4q4 4 9 8.5t9 9.5l23 26l9 11l4 6l4 5q13 22 37 65.5t47.5 87.5t41.5 77.5l18 33.5v0l6 13l6 10q12 22 21.5 39t21.5 33v1q28 39 72.5 65t99.5 31
q46 4 88 -8.5t74.5 -37t53.5 -59t25 -76.5q3 -41 -11 -79t-42 -67.5t-67 -48.5t-85 -23q-19 -2 -37.5 -0.5t-36.5 4.5h-1q-67 14 -110.5 53t-65.5 61l-118 -217l21.5 -21t40.5 -35t41.5 -26.5t42.5 -21.5q47 -20 99 -31.5t108 -11.5h8.5h8.5q50 3 97.5 13.5t91 29t82 44.5
t71.5 59q61 63 93.5 136t33.5 158v4q0 4 -0.5 9t-0.5 10v0z" />
    <glyph glyph-name="uniE815" unicode="&#xe815;" horiz-adv-x="1755" 
d="M1659 1513q-48 48 -106.5 72t-126.5 24h-1097q-68 0 -126 -24t-106 -72q-49 -49 -73 -107t-24 -126v-1097q0 -68 24 -126.5t73 -106.5q48 -48 106 -72t126 -24h1097q68 0 126.5 24t106.5 72q48 49 72 107t24 126v1097q0 68 -24 126t-72 107v0zM1609 725q0 -71 -27 -132
t-79 -113q-54 -56 -127 -87t-158 -35h-7h-6q-48 0 -91 9.5t-82 26.5q-16 7 -35 17.5t-35 22.5q-16 11 -34 28.5l-18 17.5l99 181q18 -18 54 -50.5t92 -44.5h1q15 -3 30.5 -4t31.5 1q76 6 126 59.5t44 122.5t-64.5 113t-135.5 37q-46 -4 -83.5 -25.5t-59.5 -54.5l-1 -1
q-9 -13 -17.5 -27t-18.5 -33l-4 -8l-6 -11v0l-14.5 -27.5t-34.5 -64.5t-40 -73.5t-31 -53.5l-3 -5l-3 -5l-7 -9l-19 -22q-4 -4 -8 -7.5t-8 -7.5l-3 -3l-14 -12t-15 -11l-8 -6l-5 -3q-5 -4 -10 -7t-11 -7q-9 -5 -19 -10t-20 -9q-39 -17 -83 -25.5t-92 -8.5h-10.5h-11.5
q-84 4 -154 33.5t-124 85.5q-52 52 -78 115t-26 134v8.5t1 8.5q2 51 17.5 98.5t43.5 90.5q29 43 67 76t86 56q42 20 88 30.5t96 10.5h4h8.5h9.5q4 -1 8 -1t9 -1h1h1q27 -2 53.5 -7.5t51.5 -13.5q3 -1 5.5 -2t5.5 -2q1 0 2 -0.5t2 -0.5q24 -9 45 -20t40 -24l-105 -189
q-26 25 -58 38t-73 14h-11q-26 0 -48.5 -5t-42.5 -16q-1 -1 -2 -1.5t-2 -0.5q-7 -5 -14 -9.5t-13 -10.5q-27 -23 -40.5 -51t-14.5 -62v-1.5v-0.5q-1 -22 4 -43t16 -41q9 -18 22 -32t30 -25q2 -2 4 -3t4 -3q21 -12 44 -18.5t50 -7.5h6.5h6.5q44 0 80 16.5t66 50.5
q14 19 26.5 41.5t23.5 45.5l8 16l4 7v0l70 141q3 7 7 13.5t8 12.5q6 10 14 21t17 22v0v-1q4 6 8.5 11t9.5 11l9 9l1 1l4 4v0l7 7l5 6q5 5 10.5 9.5t9.5 7.5q23 19 51 34t60 27t66 18.5t69 8.5h10.5h10.5q50 0 96.5 -10t89.5 -31q28 -13 53 -30.5t46 -38.5q15 -14 28.5 -29.5
t24.5 -33.5q26 -39 41.5 -82t19.5 -89v-1v0v0q0 -4 0.5 -8t0.5 -9v-8v-8v-2v0z" />
    <glyph glyph-name="uniE816" unicode="&#xe816;" 
d="M1288 1102v0v0l-37 193q41 20 66.5 59.5t25.5 88.5q0 69 -48.5 117.5t-117.5 48.5t-117.5 -48.5t-48.5 -117.5q0 -68 48.5 -117t117.5 -49h3.5t3.5 1l35 -186q-72 -23 -119.5 -84.5t-47.5 -141.5q0 -58 26.5 -107.5t70.5 -82.5l-77 -130q-40 22 -85 34t-93 12
q-77 0 -144 -29t-117 -79t-79 -117.5t-29 -143.5t29 -143.5t79 -117.5t117 -79t144 -29q76 0 143.5 29t117.5 79t79 117.5t29 143.5q0 43 -9.5 83t-27 76t-42 67.5t-55.5 57.5l82 137q18 -6 37.5 -9.5t39.5 -3.5q49 0 91.5 18.5t74.5 50.5t50.5 75t18.5 91q0 49 -18.5 92
t-50.5 75t-74.5 50.5t-91.5 18.5v0zM1194 223q0 -62 -24 -116.5t-64.5 -95.5t-95 -64.5t-116.5 -23.5t-117 23.5t-95.5 64.5t-64 95.5t-23.5 116.5t23.5 116.5t64 95.5t95.5 64.5t117 23.5t116.5 -23.5t95 -64.5t64.5 -95.5t24 -116.5zM1177 1335q-45 0 -76.5 31.5
t-31.5 76.5t31.5 76.5t76.5 31.5t76.5 -31.5t31.5 -76.5t-31.5 -76.5t-76.5 -31.5zM1288 700q-69 0 -117.5 49t-48.5 117q0 69 48.5 118t117.5 49t117.5 -49t48.5 -118q0 -68 -48.5 -117t-117.5 -49z" />
    <glyph glyph-name="uniE817" unicode="&#xe817;" 
d="M791 592q-41 0 -77.5 -15.5t-64 -42.5t-43 -63.5t-15.5 -78.5q0 -41 15.5 -77.5t43 -63.5t64 -43t77.5 -16t77.5 16t63.5 43t43 63.5t16 77.5q0 42 -16 78.5t-43 63.5t-63.5 42.5t-77.5 15.5zM1052 1206q0 30 -21 51t-51 21t-51 -21t-21 -51t21 -51t51 -21t51 21t21 51z
M1054 932q-46 0 -78.5 -32.5t-32.5 -78.5q0 -45 32.5 -77.5t78.5 -32.5t78.5 32.5t32.5 77.5q0 46 -32.5 78.5t-78.5 32.5v0zM1659 1513q-48 48 -106.5 72t-126.5 24h-1097q-68 0 -126 -24t-106 -72q-49 -49 -73 -107t-24 -126v-1097q0 -68 24 -126.5t73 -106.5
q48 -48 106 -72t126 -24h1097q68 0 126.5 24t106.5 72q48 49 72.5 107t24.5 126v1097q0 68 -24.5 126t-72.5 107v0zM1054 664q-14 0 -27 2.5t-25 6.5l-54 -91q41 -34 65 -83.5t24 -106.5q0 -51 -19.5 -95.5t-53 -78t-78 -53t-95.5 -19.5t-96 19.5t-78 53t-52.5 78
t-19.5 95.5t19.5 96t52.5 78.5t78 52.5t96 19q32 0 62 -8t57 -22l51 87q-29 21 -46.5 54t-17.5 72q0 53 31.5 94.5t79.5 56.5l-24 123h-2h-2q-46 0 -78.5 32.5t-32.5 78.5t32.5 78.5t78.5 32.5t78 -32.5t32 -78.5q0 -33 -17 -59t-44 -40l25 -129v0v0q65 0 111 -46t46 -111
t-46 -111t-111 -46v0z" />
    <glyph glyph-name="uniE818" unicode="&#xe818;" 
d="M1011 1028l12 6l-51 194q-2 8 -7.5 14t-12.5 8v0v0l59 -222v0zM596 822q-15 8 -28 24t-16 30l-48 179l-139 -66q-18 -8 -28 -25.5t-5 -34.5l180 -684q4 -17 20 -22.5t34 2.5l459 214l-42 159l-387 224v0zM1024 439l52 -194q1 -8 6 -13t11 -8l-58 220zM1716 543l-180 685
q-4 17 -20 22.5t-34 -2.5l-459 -214l45 -171l384 -222q15 -8 28 -24t16 -30l45 -170l142 66q18 9 28 26.5t5 33.5v0zM952 1250q-4 14 -16.5 30t-27.5 24l-519 300q-14 8 -22 4t-4 -18l141 -535l415 193q9 4 17.5 4.5t15.5 -2.5zM933 941l119 -69l-41 156l-83 -39
q-17 -8 -27 -25.5t-5 -34.5l87 -331l13 -7l-89 336q-4 14 4 18t22 -4v0zM1093 224l3 -11q4 -14 16.5 -30t27.5 -24l519 -300q15 -8 22.5 -4t3.5 18l-144 544l-412 -192q-9 -5 -18.5 -5t-17.5 4v0zM1141 535q4 -13 -4 -17t-22 4l-119 69l39 -147l85 39q18 9 27.5 26.5
t5.5 33.5l-84 320l-17 9l89 -337v0z" />
    <glyph glyph-name="uniE819" unicode="&#xe819;" 
d="M859 631l-9 5l-58 221q-3 11 3.5 22.5t18.5 17.5l55 25l-39 148v0.5v0.5q-5 1 -11 1t-11 -3l-277 -129l32 -119q2 -9 11 -20t18 -16l258 -149l28 -106l7 3l-26 98v0zM896 818l11 -6l-30 114l-8 -4zM956 594l-59 224l-80 46q-10 6 -15 3.5t-2 -12.5l59 -224l79 -46
q10 -6 15 -3t3 12v0zM1659 1513q-48 48 -106.5 72t-126.5 24h-1097q-68 0 -126 -24t-106 -72q-49 -49 -73 -107t-24 -126v-1097q0 -68 24 -126.5t73 -106.5q48 -48 106 -72t126 -24h1097q68 0 126.5 24t106.5 72q48 49 72.5 107t24.5 126v1097q0 68 -24.5 126t-72.5 107v0z
M1317 559l-94 -44l96 -363q2 -9 -3 -11.5t-15 2.5l-346 200q-10 6 -18.5 16.5t-10.5 19.5l-2 7q-4 2 -7.5 5.5t-4.5 8.5l-34 130l-306 -143q-12 -6 -22.5 -2t-13.5 15l-120 457q-3 11 3.5 22.5t18.5 17.5l93 43l-94 357q-2 9 3 12t14 -3l347 -200q9 -5 17.5 -15.5
t11.5 -19.5q5 -2 8.5 -6t4.5 -9l34 -130l306 143q12 5 22.5 1.5t13.5 -14.5l120 -457q3 -11 -3.5 -22.5t-18.5 -17.5v0zM1163 664l-256 148l56 -213q3 -11 -3.5 -22.5t-17.5 -17.5l-57 -26l39 -147q5 -2 11 -2t13 3l275 128l-30 113q-3 10 -11.5 20.5t-18.5 15.5v0z" />
    <glyph glyph-name="uniE820" unicode="&#xe820;" 
d="M1512 1461v-1409h-269v114q-40 -38 -79.5 -65t-78.5 -43q-40 -17 -83 -25t-89 -8q-52 0 -100.5 10t-93 30t-86 50.5t-79.5 70.5t-66.5 85t-47.5 95.5t-28.5 105t-9.5 114.5q0 62 9.5 118.5t27.5 107.5t45.5 96.5t64.5 84.5q37 40 77.5 69.5t85 49.5t93 30t100.5 10
q48 0 93.5 -9t87.5 -28q43 -18 82 -45t75 -64v532h127q-40 17 -81.5 30.5t-85 22.5t-88.5 13.5t-91 4.5q-182 0 -342 -69t-279 -188t-188 -279t-69 -342q0 -181 69 -341t188 -279t279 -188t342 -69t342 69t279 188t188 279t69 341q0 115 -28 221t-79 199.5t-123 172
t-160 137.5v0zM960 904q-62 0 -114 -22t-93 -67q-41 -44 -62 -100.5t-21 -125.5t21 -126t63 -102t94 -67.5t113 -22.5q63 0 115.5 22t94.5 66t63 102t21 129q0 70 -21 127t-63 100t-94.5 65t-116.5 22v0z" />
    <glyph glyph-name="uniE821" unicode="&#xe821;" 
d="M1659 1513q-48 48 -106.5 72t-126.5 24h-1097q-68 0 -126 -24t-106 -72q-49 -49 -73 -107t-24 -126v-1097q0 -68 24 -126.5t73 -106.5q48 -48 106 -72t126 -24h1097q68 0 126.5 24t106.5 72q48 49 72.5 107t24.5 126v1097q0 68 -24.5 126t-72.5 107v0zM878 146
q-121 0 -228 46t-186 125.5t-125 186t-46 227.5q0 122 46 228.5t125 186t186 125.5t228 46q61 0 119 -12.5t112 -35.5h-85v-354q-24 24 -50.5 42t-54.5 30q-28 13 -58 19t-62 6q-70 0 -129.5 -26.5t-108.5 -79.5t-73.5 -121t-24.5 -150q0 -80 25.5 -147t75.5 -120
q51 -54 111 -81t129 -27q31 0 59.5 5.5t54.5 16.5q27 11 53 29t53 43v-75h179v939q59 -39 107 -91.5t82 -115t52.5 -133.5t18.5 -147q0 -121 -46 -227.5t-125.5 -186t-186 -125.5t-227.5 -46v0zM1031 637q0 -47 -13.5 -85.5t-41.5 -68.5q-28 -29 -63 -43.5t-77 -14.5
q-41 0 -75.5 14.5t-62.5 44.5t-42 68t-14 85q0 46 13.5 83.5t41.5 66.5q27 30 61.5 44.5t76.5 14.5q43 0 78 -14.5t63 -43.5q28 -28 41.5 -66t13.5 -85v0z" />
    <glyph glyph-name="uniE822" unicode="&#xe822;" 
d="M527 850q-26 0 -49 -16t-39 -35q-14 -16 -20.5 -38t-6.5 -43q0 -20 7 -41t21 -37q16 -19 35 -31.5t45 -12.5q23 0 48.5 9.5t41.5 25.5t28 40.5t12 48.5q0 23 -7 48t-24 41q-16 16 -42.5 28.5t-49.5 12.5v0zM1145 841q-27 0 -48.5 -10.5t-38.5 -31.5q-14 -17 -21 -36
t-7 -41t7 -41.5t21 -36.5q17 -21 38.5 -31.5t48.5 -10.5q24 0 44.5 8.5t36.5 25.5q17 18 25 39.5t8 46.5t-8 46t-25 38q-17 18 -37 26.5t-44 8.5v0zM1024 1609q-182 0 -342 -69t-279 -188t-188 -279t-69 -342q0 -181 69 -341t188 -279t279 -188t342 -69t342 69t279 188
t188 279t69 341q0 182 -69 342t-188 279t-279 188t-342 69v0zM816 463h-163v66q-12 -15 -35.5 -29.5t-36.5 -21.5q-22 -12 -50.5 -19.5t-56.5 -7.5q-46 0 -86.5 14.5t-75.5 46.5q-43 37 -63 91.5t-20 116.5q0 63 21.5 113t64.5 87q35 30 76.5 51t85.5 21q26 0 56 -3.5
t53 -14.5q13 -6 33 -19.5t34 -28.5v349h163v-812v0zM1372 538q-40 -47 -97 -70t-130 -23t-130 23t-97 70q-34 38 -50.5 85.5t-16.5 102.5q0 51 16.5 95.5t50.5 83.5q41 47 99 70.5t133 23.5q70 0 125 -23.5t97 -70.5q33 -39 50 -84.5t17 -98.5q0 -54 -16.5 -100t-50.5 -84v0
zM1509 1243q15 14 32 21.5t37 7.5q21 0 38 -7.5t31 -21.5q15 -14 22 -31t7 -37q0 -21 -7 -38.5t-22 -31.5q-14 -14 -31 -21t-38 -7q-20 0 -37 7t-32 22q-14 14 -20.5 31t-6.5 38q0 20 6.5 37t20.5 31v0zM1665 464h-173v516h173v-516z" />
    <glyph glyph-name="uniE823" unicode="&#xe823;" horiz-adv-x="1755" 
d="M962 910q-50 0 -89 -16t-66 -47q-22 -26 -33.5 -55.5t-11.5 -63.5q0 -37 11 -68.5t34 -57.5q27 -31 65 -46.5t86 -15.5q49 0 87 15.5t65 46.5q22 26 33 56.5t11 66.5t-11 66t-33 56q-28 31 -65 47t-83 16v0zM1013 668q-11 -11 -25 -17t-30 -6q-17 0 -32 7t-26 21
q-9 12 -13.5 24.5t-4.5 27.5t4.5 27.5t13.5 24.5q11 14 26 21t32 7q16 0 29.5 -6t24.5 -18q11 -11 17 -25t6 -31t-5.5 -31t-16.5 -26v0zM631 861q-10 10 -23.5 19t-22.5 13q-15 7 -34.5 9.5t-37.5 2.5q-30 0 -57.5 -14t-50.5 -34q-29 -25 -43.5 -58t-14.5 -75
q0 -41 14 -77.5t42 -61.5q24 -21 51 -31t57 -10q19 0 38 5t33 14q9 4 24.5 13.5t24.5 20.5v-44h108v541h-108v-233v0zM602 664q-11 -10 -28 -16.5t-32 -6.5q-18 0 -30.5 8.5t-23.5 21.5q-9 10 -13.5 24t-4.5 28q0 13 4.5 28t12.5 25q12 13 27 23.5t32 10.5q16 0 33.5 -8
t28.5 -19t15.5 -27.5t4.5 -31.5q0 -16 -8 -32.5t-18 -27.5v0zM1190 553h115v344h-115v-344zM1201 1073q-9 -10 -13.5 -21.5t-4.5 -24.5q0 -14 4.5 -25.5t13.5 -20.5q10 -10 21.5 -14.5t24.5 -4.5q14 0 25.5 4.5t20.5 14.5q10 9 14.5 20.5t4.5 25.5q0 13 -4.5 24.5
t-14.5 21.5q-9 9 -20.5 13.5t-25.5 4.5q-13 0 -24.5 -4.5t-21.5 -13.5v0zM1659 1513q-48 48 -106.5 72t-126.5 24h-1097q-68 0 -126 -24t-106 -72q-49 -49 -73 -107t-24 -126v-1097q0 -68 24 -126.5t73 -106.5q48 -48 106 -72t126 -24h1097q68 0 126.5 24t106.5 72
q48 49 72.5 107t24.5 126v1097q0 68 -24.5 126t-72.5 107v0zM878 146q-121 0 -228 46t-186 125.5t-125 186t-46 227.5q0 122 46 228.5t125 186t186 125.5t228 46t227.5 -46t186 -125.5t125.5 -186t46 -228.5q0 -121 -46 -227.5t-125.5 -186t-186 -125.5t-227.5 -46v0z" />
    <glyph glyph-name="uniE824" unicode="&#xe824;" 
d="M1625 287q-35 3 -82 7t-90 10.5t-73 16.5t-32 26q2 39 39.5 65.5t82.5 52.5q37 22 70 47.5t60.5 55t50 64t39.5 74.5q2 5 11 33t8 25q-41 -51 -84 -95t-87 -82.5t-87.5 -73.5t-86.5 -68q-29 -22 -64 -36.5t-69 -27.5q-13 -5 -34.5 -4.5t-24.5 6.5q-7 13 -6.5 32t6.5 34
q22 57 49.5 112t42.5 114q10 39 17.5 79.5t13 82t9.5 82.5l8 82q4 45 5.5 90t2 90t1 90.5t1.5 90.5q0 14 -1 36.5t-6 38.5q-17 -19 -20.5 -43.5l-3.5 -24.5q-7 -43 -11 -91t-7 -88.5t-7 -66t-13 -23.5q-8 2 -25 42.5t-32 98.5t-23.5 123.5t-1.5 117.5q-38 -23 -34 -92
t18 -120q12 -42 26 -85.5t30 -82.5q17 -42 14.5 -88.5t-3.5 -91.5q-1 -29 -7 -58t-13 -57q-9 -35 -29 -43.5t-47 14.5q-33 27 -62.5 59.5t-53.5 68.5q-35 51 -66 103.5t-55 108t-40 114.5t-22 122q-1 15 -6.5 30t-10.5 35q-23 -58 -18 -93.5t9 -75.5q8 -71 30.5 -135
t54.5 -123.5t70.5 -116t77.5 -112.5q39 -54 49.5 -111.5t-13.5 -124.5q-29 -79 -79.5 -104t-132.5 6q-45 17 -77 43.5t-55 60.5t-38 74.5t-27 85.5q-9 38 -15 79.5t-10.5 88.5t-8.5 101.5t-8 117.5q-5 65 -17.5 105t-37.5 44q5 -31 14 -74.5t14 -77.5q8 -63 6.5 -112.5
t-9.5 -112.5q-2 -20 -12.5 -32.5t-17.5 -8.5q-27 16 -46 50t-31.5 73t-19.5 77.5t-10 62.5q-15 -18 -14.5 -54t14.5 -81.5t40 -96t63 -95.5q25 -30 40.5 -63.5t33.5 -68.5q14 -27 11.5 -54t-25.5 -49q-23 -24 -54 -29.5t-61 2.5q-17 4 -37.5 12.5t-46.5 15.5
q27 -40 65 -47.5t69 -11.5q32 -3 61 -2.5t61 0.5q52 0 83.5 -34.5t58.5 -70.5q35 -47 53 -96t22.5 -100t-2.5 -103.5t-23 -105.5q-4 -14 -6.5 -27.5t-6.5 -26.5q-1 -5 -4 -9t-5 -9q-183 43 -320.5 139.5t-226 226t-125.5 280.5t-17 302q28 212 122.5 366t227 251t287.5 138
t304 25q215 -22 372.5 -114t258 -223t144 -286t30.5 -305q-19 -213 -105.5 -367.5t-210.5 -254.5t-269 -147.5t-280 -46.5q4 47 10.5 93t18 90.5t30 86.5t47.5 81q33 45 82.5 61t106.5 10q48 -6 90 -11t91 -8q26 2 55.5 7.5t59.5 22.5v0z" />
    <glyph glyph-name="uniE825" unicode="&#xe825;" horiz-adv-x="1755" 
d="M1659 1513q-48 48 -106.5 72t-126.5 24h-1097q-68 0 -126 -24t-106 -72q-49 -49 -73 -107t-24 -126v-1097q0 -68 24 -126.5t73 -106.5q48 -48 106 -72t126 -24h1097q68 0 126.5 24t106.5 72q48 49 72 107t24 126v1097q0 68 -24 126t-72 107v0zM1461 689
q-12 -141 -70 -244t-140.5 -170t-179.5 -98.5t-187 -31.5q6 63 19.5 123t51.5 111q22 31 55 41.5t71 6.5l60 -7.5t61 -5.5q17 2 36.5 5.5t39.5 14.5q-47 4 -114.5 12t-69.5 28q1 26 26 44t55 35q50 29 87 68t59 93q2 3 8 21.5t5 16.5q-55 -68 -114 -118.5t-116 -94.5
q-19 -14 -42 -23.5t-46 -18.5q-9 -4 -23.5 -3.5t-16.5 4.5q-5 9 -4.5 21.5t4.5 22.5q15 38 33.5 75t28.5 76q13 52 20 107.5t11 109.5q6 60 6 120t1 121q0 10 -0.5 24.5t-3.5 25.5q-12 -13 -14 -29l-2 -16q-10 -58 -12 -120.5t-14 -59.5q-5 2 -16 29t-21.5 65.5t-16 82.5
t-0.5 78q-26 -16 -23 -61.5t12 -79.5q8 -29 17.5 -57.5t19.5 -55.5q11 -27 9.5 -58t-2.5 -61q0 -20 -4 -39t-9 -38q-6 -24 -19 -29.5t-32 9.5q-22 19 -41.5 40.5t-35.5 45.5q-23 34 -43.5 69t-36.5 72t-27 76.5t-15 81.5q-1 10 -4.5 20t-6.5 23q-15 -39 -12 -63t6 -50
q5 -47 20 -89.5t36.5 -82.5t47 -77.5t52.5 -75.5q25 -36 32 -74.5t-9 -82.5q-19 -52 -52.5 -69t-88.5 4q-60 22 -88 69t-43 107q-13 50 -17.5 111.5t-10.5 146.5q-4 43 -12 69.5t-25 29.5q3 -21 9 -50t9 -51q6 -43 5 -75.5t-6 -75.5q-2 -13 -9 -21t-11 -5q-37 21 -52.5 81.5
t-18.5 92.5q-20 -23 -0.5 -90t68.5 -127q17 -20 27 -42.5t22 -45.5q10 -18 8 -36t-17 -33q-15 -16 -35.5 -19.5t-40.5 1.5q-12 3 -25.5 8.5t-30.5 10.5q17 -27 42.5 -32t46.5 -7q21 -3 40.5 -2.5t40.5 0.5q35 0 56 -23t39 -47q46 -63 50 -131t-17 -139q-3 -9 -4.5 -18
t-4.5 -18q0 -3 -2 -6l-4 -6q-121 29 -213 93.5t-151 150.5t-83.5 187t-11.5 201q19 141 82 244t151 167.5t191.5 92t203.5 16.5q143 -15 248 -76t172 -148.5t96 -191t20 -203.5v0z" />
    <glyph glyph-name="uniE826" unicode="&#xe826;" 
d="M550 1308q32 0 53 21.5t21 52.5q0 32 -21.5 53.5t-52.5 21.5q-30 -1 -52 -22.5t-22 -51.5q-1 -30 21.5 -52.5t52.5 -22.5v0zM1787 558q-31 0 -53 -22t-22 -53q1 -30 22.5 -51.5t51.5 -22.5t52.5 21t22.5 53q0 32 -21.5 53.5t-52.5 21.5v0zM1495 1308q32 0 53 21.5
t21 53.5q0 31 -22 52.5t-53 20.5q-30 0 -52 -22t-22 -52t22.5 -52t52.5 -22v0zM1023 2q-31 0 -53.5 -22t-21.5 -52t22.5 -52t51.5 -22q30 -1 52.5 21t22.5 53q0 32 -21.5 53t-52.5 21zM1271 41q-31 0 -52.5 -21.5t-21.5 -51.5t22 -52t52 -22q31 0 52.5 22t21.5 53t-21.5 52
t-52.5 20zM1827 806q-31 0 -52.5 -21t-22.5 -52q-1 -30 21.5 -53t53.5 -22q30 0 51.5 22t21.5 52q0 31 -21 52t-52 22v0zM373 333q-31 0 -52 -20.5t-22 -51.5q0 -32 22 -54t53 -22q30 1 51.5 23t21.5 52t-21.5 51.5t-52.5 21.5zM372 1130q30 -1 52.5 21.5t22.5 53.5
q0 30 -21.5 51.5t-52.5 21.5t-52 -21t-22 -52q0 -31 21.5 -53t51.5 -22v0zM1271 1422q31 0 52.5 22t21.5 53t-22 52.5t-54 20.5q-29 0 -50.5 -22.5t-21.5 -52.5q0 -29 22 -51t52 -22v0zM333 483q0 30 -21 52t-52 23q-31 0 -53 -21.5t-23 -52.5q0 -30 21.5 -52t51.5 -23
t53 21.5t23 52.5v0zM1672 1130q30 0 52 21.5t23 52.5q0 30 -21.5 51.5t-51.5 22.5q-31 0 -53 -21.5t-22 -51.5t21.5 -52t51.5 -23v0zM292 732q0 31 -21 52t-52 21t-52 -21t-21 -52t22 -52.5t52 -21.5t51.5 22t20.5 52v0zM1023 1462q30 -1 51.5 21t21.5 52q0 31 -21 52.5
t-52 21.5q-30 0 -51.5 -21.5t-22.5 -51.5q0 -30 21.5 -52t52.5 -22v0zM1672 333q-30 0 -51.5 -22t-21.5 -52t22.5 -52t52.5 -21q30 0 51.5 22t21.5 52q-1 31 -22.5 52t-52.5 21zM1713 981q0 -29 21.5 -51.5t51.5 -22.5q30 -1 52 20.5t22 51.5q1 31 -20.5 53t-51.5 22
t-52 -21.5t-23 -51.5zM259 907q31 0 52 21.5t21 52.5q0 30 -21.5 51.5t-52.5 21.5q-30 0 -51 -21.5t-21 -52.5t21.5 -52.5t51.5 -20.5v0zM775 1422q30 0 51.5 22t21.5 53q0 30 -21.5 51.5t-52.5 21.5q-30 0 -51.5 -21.5t-20.5 -52.5q0 -31 21.5 -52.5t51.5 -21.5v0zM550 155
q-30 0 -52 -21.5t-21 -52.5q0 -30 22 -51t52 -21q31 0 52 21.5t21 52.5q0 30 -21.5 51t-52.5 21zM1495 155q-31 0 -52 -21t-21 -52t21.5 -52t51.5 -21q31 0 52 21t21 52t-21 52t-52 21zM776 41q-31 0 -52.5 -20.5t-21.5 -51.5q-1 -31 20 -52.5t52 -21.5q30 -1 51.5 20
t22.5 52q0 31 -21 52.5t-51 21.5zM1267 1335q1 -25 20 -43.5t44 -18.5q26 0 44 19t18 45t-18.5 44t-43.5 18q-26 0 -45 -19.5t-19 -44.5zM419 486q-27 0 -44.5 -17.5t-17.5 -44.5q0 -26 17.5 -44t43.5 -19q26 0 45 19t19 45q-1 26 -19 43.5t-44 17.5v0zM544 1273
q-26 1 -44.5 -17t-19.5 -44q0 -25 19 -44t45 -19t44 18.5t18 44.5t-18 43.5t-44 17.5v0zM1693 901q-25 0 -44 -18.5t-19 -44.5q0 -25 18.5 -44t43.5 -19q26 0 44.5 19t18.5 44t-18.5 44t-43.5 19v0zM544 190q25 0 43.5 18.5t18.5 44.5q0 25 -18.5 43.5t-43.5 18.5
q-26 0 -44.5 -18.5t-18.5 -43.5t18.5 -44t44.5 -19v0zM1693 564q26 0 44.5 18t18.5 44q0 25 -18.5 43.5t-44.5 18.5t-45 -18.5t-19 -44.5q1 -25 19.5 -43t44.5 -18v0zM1129 125q-26 0 -44.5 -18.5t-18.5 -43.5q0 -26 18 -44t44 -19q26 0 44.5 17.5t19.5 43.5t-18 45t-45 19z
M1066 1402q0 -25 18.5 -44t44.5 -19q25 0 43.5 18.5t19.5 43.5q0 26 -18.5 44.5t-44.5 19.5q-25 0 -44 -19t-19 -44v0zM357 1039q0 -26 18.5 -44.5t44.5 -17.5q25 0 43 19t18 45t-18.5 44t-44.5 17q-26 0 -43.5 -18.5t-17.5 -44.5zM1689 425q0 25 -18 43t-43 18
q-26 0 -44.5 -18t-18.5 -44q0 -25 18.5 -43.5t44.5 -18.5q25 1 43.5 19.5t17.5 43.5zM415 838q0 26 -18.5 44.5t-43.5 18.5q-25 -1 -43 -19t-18 -43q-1 -26 17 -44.5t44 -18.5q25 -1 43.5 17.5t18.5 44.5v0zM1330 190q-26 0 -44.5 -18.5t-17.5 -44.5t19 -43.5t45 -17.5
q26 0 43.5 18.5t17.5 44.5t-18.5 43.5t-44.5 17.5v0zM916 1339q25 0 43.5 18t19.5 44q0 26 -18 44.5t-44 18.5q-25 0 -43 -17.5t-19 -43.5q0 -26 17.5 -44.5t43.5 -19.5v0zM1626 978q25 -1 44 17.5t19 43.5q1 25 -18 44t-44 19t-44 -18.5t-18 -44.5q0 -24 18 -42.5t43 -18.5
v0zM1501 190q26 0 44.5 18t18.5 44t-18 44.5t-44 18.5q-25 0 -43 -18.5t-18 -44.5q0 -25 17.5 -43t42.5 -19v0zM715 1274q26 0 44 18.5t18 44.5t-19 44t-44 17q-25 0 -42.5 -18t-17.5 -43q-1 -26 17.5 -44.5t43.5 -18.5zM352 564q26 0 44.5 17.5t18.5 43.5t-17.5 44
t-43.5 19q-26 0 -44 -17.5t-18 -42.5q-1 -26 16.5 -44.5t43.5 -19.5v0zM1504 1273q-26 1 -44.5 -16.5t-18.5 -43.5q-1 -27 16.5 -45t44.5 -18q26 0 44 17.5t18 43.5t-17.5 44t-42.5 18v0zM777 127q0 27 -18 44.5t-44 17.5t-43.5 -17t-17.5 -42q-1 -27 16.5 -45t43.5 -19
q27 0 45 17.5t18 43.5v0zM978 62q1 26 -17 44t-44 18t-44 -18t-18 -44t17.5 -43.5t43.5 -17.5q26 -1 44 17t18 44v0zM1249 194q0 23 -14.5 37.5t-37.5 14.5q-21 0 -37 -15.5t-16 -36.5q1 -20 16.5 -36t35.5 -16q21 -1 37 15t16 37v0zM568 452q-23 0 -38 -14t-16 -37
q0 -22 15 -38t36 -16q21 -1 37.5 15.5t16.5 37.5q0 20 -15 35.5t-36 16.5v0zM1641 730q0 21 -14.5 37t-35.5 17q-23 0 -38.5 -13.5t-16.5 -35.5t13.5 -38.5t36.5 -17.5q21 -1 37.5 14.5t17.5 36.5zM1198 1321q-21 0 -37 -15t-16 -37q-1 -20 15.5 -36.5t37.5 -16.5
q21 1 36 16t15 36q1 23 -13.5 38t-37.5 15v0zM514 1063q0 -21 15.5 -36.5t35.5 -15.5q21 0 37.5 16t16.5 37t-16 36.5t-38 15.5t-36.5 -15t-14.5 -38v0zM1508 907q-1 -21 15.5 -37t37.5 -16t36 16t15 38q-1 22 -16 36.5t-37 13.5q-20 0 -35.5 -15t-15.5 -36v0zM1356 327
q-21 1 -37.5 -15t-15.5 -37q0 -21 15 -36t36 -16q22 0 37 14.5t16 35.5q0 22 -15 38t-36 16zM433 907q0 -21 16 -37t37 -16t36 15.5t15 36.5q0 22 -14.5 37t-37.5 15q-21 0 -36 -15t-16 -36v0zM742 275q0 21 -14.5 36.5t-35.5 15.5q-21 1 -37 -15t-16 -37t15 -36t36 -16
q22 0 37 14.5t15 37.5v0zM1479 1012q21 0 37 16t16 37q0 20 -15.5 35t-36.5 15t-36 -14.5t-16 -35.5q0 -21 15 -36.5t36 -16.5v0zM1532 400q0 21 -15.5 36t-36.5 15t-36 -14.5t-16 -35.5q0 -22 15.5 -37.5t37.5 -15.5q20 0 35.5 15.5t15.5 36.5v0zM458 680q21 0 36.5 15.5
t15.5 36.5t-15 36t-36 15q-21 1 -36.5 -14t-16.5 -36t15 -37t37 -16v0zM1355 1241q-21 0 -36.5 -15t-15.5 -36q0 -22 15.5 -37.5t37.5 -14.5q21 0 35.5 15t14.5 37q0 21 -15 36t-36 15v0zM691 1138q22 0 36.5 14.5t14.5 36.5q0 21 -15 36.5t-35 15.5q-22 1 -37.5 -15
t-15.5 -38q1 -21 16 -35.5t36 -14.5v0zM1023 115q21 0 36 15.5t15 36.5t-15 36.5t-36 15.5q-20 0 -35.5 -15t-16.5 -36q0 -21 15.5 -37t36.5 -16v0zM1023 1349q-21 0 -36.5 -15t-15.5 -36q-1 -21 14.5 -37t37.5 -16q21 0 36 14.5t15 36.5q1 22 -14 37.5t-37 15.5v0z
M1612 557q0 21 -14.5 36t-36.5 16q-21 0 -37 -15t-16 -37q0 -20 15.5 -35.5t36.5 -15.5q21 -1 36 14.5t16 36.5v0zM847 1321q-21 -1 -36 -16t-14 -37q0 -21 15.5 -36t36.5 -15q21 1 36 17t14 38q0 21 -15.5 35t-36.5 14v0zM486 506q21 0 36 15t15 36t-14.5 36t-35.5 16
q-22 0 -37.5 -15t-15.5 -37q0 -21 15.5 -36t36.5 -15v0zM900 194q0 22 -14.5 37t-36.5 15q-21 0 -36.5 -14.5t-15.5 -35.5q-1 -21 14.5 -37t36.5 -16t36 15t16 36v0zM691 355q17 0 29.5 13t12.5 31t-11.5 30.5t-29.5 13.5q-19 0 -32.5 -12.5t-13.5 -30.5t13.5 -31.5
t31.5 -13.5v0zM1445 805q0 -18 12.5 -30.5t30.5 -12.5q17 0 31 13.5t13 31.5q0 17 -13.5 29.5t-30.5 12.5q-19 0 -31 -12.5t-12 -31.5zM1236 268q17 0 30.5 13t13.5 32q0 18 -12 30t-30 12q-19 1 -32.5 -12t-13.5 -31q1 -17 14 -30t30 -14v0zM559 947q0 -18 13.5 -31.5
t30.5 -13.5q19 0 31.5 13t11.5 32q0 18 -12 30t-31 12q-17 0 -30 -12.5t-14 -29.5zM1097 1241q-17 1 -31 -13t-14 -31t13 -30t31 -13q19 0 31.5 12t12.5 31q0 18 -12.5 31t-30.5 13zM557 762q18 0 31 13t14 30q0 17 -12.5 30t-30.5 14q-17 1 -30.5 -11.5t-13.5 -29.5
q-1 -18 12 -32t30 -14v0zM1443 902q17 0 29.5 12.5t12.5 30.5q0 19 -11.5 31t-30.5 13q-18 0 -31 -13t-13 -31q0 -17 13 -30t31 -13v0zM1355 355q18 0 30.5 12.5t13.5 30.5q0 18 -12 31t-30 13q-18 1 -31 -12t-13 -31t12.5 -30.5t29.5 -13.5v0zM809 269q18 0 31 13t12 32
q-1 18 -13 30t-31 11q-18 0 -30 -12.5t-12 -30.5t13 -30.5t30 -12.5zM906 1197q0 -18 12.5 -30.5t30.5 -12.5t30.5 12t12.5 30q1 18 -11.5 31t-30.5 14q-17 0 -30.5 -13t-13.5 -31v0zM949 224q18 0 30.5 12.5t12.5 30.5t-13 30.5t-30 12.5t-29.5 -12.5t-12.5 -30.5
t12.5 -30.5t29.5 -12.5v0zM690 1107q-18 0 -30.5 -12t-12.5 -30q0 -17 12.5 -30t30.5 -13t30.5 12.5t12.5 30.5t-12.5 30t-30.5 12v0zM1237 1194q-18 0 -31 -12.5t-13 -29.5t13 -30.5t30 -13.5q18 0 30.5 13t12.5 30q0 18 -12 30.5t-30 12.5zM1139 267q0 17 -12.5 30
t-29.5 13q-17 1 -30 -12t-14 -31q0 -17 13 -30t30 -13q18 0 30.5 12.5t12.5 30.5zM1488 616q18 0 30.5 12.5t12.5 29.5q0 18 -12.5 30.5t-30.5 12.5t-30.5 -12.5t-12.5 -30.5q0 -17 12.5 -29.5t30.5 -12.5zM601 658q0 17 -12.5 30t-30.5 13t-30.5 -12t-12.5 -30t12.5 -30.5
t29.5 -12.5q18 -1 31 11.5t13 30.5v0zM1485 519q0 18 -12.5 30t-30.5 12q-18 -1 -30.5 -13.5t-12.5 -30.5q1 -17 14 -29.5t30 -12.5q18 1 30 13.5t12 30.5v0zM767 1150q0 -17 13 -29.5t30 -12.5q18 1 30 14t12 31q-1 18 -13.5 29.5t-30.5 11.5t-30 -13t-11 -31v0zM604 561
q-18 0 -30.5 -12t-12.5 -30q-1 -17 11.5 -30t29.5 -14q18 0 31 12.5t13 29.5q0 19 -11.5 31t-30.5 13v0zM1356 1107q-19 0 -31 -12.5t-12 -30.5q1 -17 13 -29t29 -13q18 0 30.5 12t12.5 31q0 18 -12 30t-30 12v0zM1025 1085q14 1 24.5 12.5t10.5 25.5q-1 14 -12.5 24.5
t-25.5 10.5q-14 -1 -24.5 -12t-10.5 -25q0 -15 11.5 -26t26.5 -10v0zM1302 961q0 -14 10.5 -25t24.5 -11q15 -1 26 10t11 25q0 15 -11 26t-25 11t-25 -11t-11 -25zM1251 453q-15 0 -25.5 -11t-10.5 -25q0 -15 11 -25.5t26 -10.5t25.5 10.5t10.5 25.5t-11 26t-26 10v0z
M616 853q0 -15 11.5 -26t26.5 -11q15 1 25 11.5t10 25.5q0 14 -10.5 24.5t-25.5 10.5t-26 -10.5t-11 -24.5v0zM794 381q15 0 25 10t11 25q0 16 -10 26.5t-25 10.5q-15 1 -25.5 -9.5t-10.5 -25.5q0 -16 9.5 -26t25.5 -11zM1338 468q15 0 25.5 10.5t10.5 25.5q0 14 -11 24.5
t-26 10.5q-15 -1 -25 -11t-10 -24q-1 -15 9.5 -25.5t26.5 -10.5v0zM1428 852q1 16 -9 26t-26 10q-15 0 -25 -10t-10 -25q-1 -15 9.5 -26t25.5 -11t25 10.5t10 25.5v0zM902 326q14 -1 25 9.5t11 25.5q1 14 -9.5 25t-24.5 12q-15 1 -25.5 -9.5t-11.5 -25.5q0 -15 10 -26
t25 -11zM633 696q15 0 25.5 10.5t10.5 25.5q1 14 -9 24.5t-25 10.5q-15 1 -26 -9t-11 -25q-1 -14 9.5 -25.5t25.5 -11.5v0zM867 1101q1 -15 11 -24.5t25 -9.5t25.5 10t9.5 26q0 15 -10.5 25t-25.5 10q-16 -1 -25.5 -11.5t-9.5 -25.5v0zM1108 1100q1 -14 11 -23.5t25 -9.5
q15 1 24.5 11t10.5 24q0 15 -10.5 25.5t-26.5 9.5q-15 0 -24.5 -10.5t-9.5 -26.5v0zM795 1011q14 1 24 11t10 24q0 15 -9.5 25t-23.5 11q-16 0 -26.5 -10t-10.5 -25t10.5 -25.5t25.5 -10.5v0zM1253 1082q-15 0 -25.5 -10t-11.5 -25q0 -14 10 -24.5t25 -11.5q14 0 25 10.5
t11 25.5q0 14 -10 24t-24 11v0zM709 997q-15 0 -26 -11t-11 -26q1 -14 11 -24t24 -11q15 0 25.5 10.5t10.5 25.5t-10 25t-24 11v0zM743 504q0 14 -10 24t-25 11q-15 0 -25.5 -11t-10.5 -25q1 -15 11 -24.5t25 -10.5q15 0 25 10.5t10 25.5v0zM1023 307q15 0 25.5 11t9.5 26
q0 15 -10.5 24.5t-24.5 9.5q-15 0 -25 -10t-11 -24q0 -15 11 -26t25 -11v0zM1428 613q0 14 -10 24t-25 10t-25 -10.5t-10 -25.5t11 -25t26 -9q14 0 23.5 10.5t9.5 25.5zM1179 362q0 14 -11 25t-26 11q-14 -1 -24 -11t-10 -25t10.5 -25.5t25.5 -10.5q14 1 24 11.5t11 24.5v0z
M1448 733q-1 15 -11.5 24.5t-24.5 9.5q-15 0 -25 -10t-10 -24q-1 -15 10 -26t26 -11q14 1 24.5 12t10.5 25v0zM652 577q15 -1 26 9.5t10 25.5q0 14 -10 24.5t-24 10.5q-14 1 -24.5 -9t-11.5 -24q-1 -15 9 -26t25 -11v0zM707 812q-12 0 -21.5 -9t-9.5 -21q1 -12 9.5 -20.5
t20.5 -8.5t21.5 9t9.5 21q0 11 -9 20t-21 9zM706 711q-11 0 -20 -8.5t-9 -20.5t9.5 -21t21.5 -8q12 0 20.5 9t8.5 21q-1 11 -10 20t-21 8v0zM1250 928q12 1 21 10.5t8 21.5t-10 20.5t-20 7.5q-12 0 -20.5 -9t-9.5 -20q0 -12 9.5 -21.5t21.5 -9.5v0zM879 417q13 1 20.5 8.5
t8.5 20.5q1 12 -9 21.5t-22 9.5q-11 0 -20.5 -9.5t-9.5 -21.5t10 -21.5t22 -7.5zM975 386q11 1 19.5 10t8.5 21q-1 12 -10.5 21t-21.5 8t-20 -10.5t-8 -20.5q1 -12 10.5 -21t21.5 -8v0zM943 1048q0 -13 9 -21t22 -8q12 0 20.5 9t8.5 20q0 12 -9.5 21t-21.5 9
q-13 -1 -21 -9.5t-8 -20.5zM767 586q0 12 -9 21t-20 9q-12 0 -20.5 -8.5t-9.5 -20.5q0 -12 9 -21t20 -9q12 0 21 9t9 20v0zM1251 476q12 1 20 9.5t8 20.5q0 13 -9 21t-22 8q-12 -1 -20.5 -9.5t-8.5 -20.5t9.5 -20.5t22.5 -8.5v0zM1279 878q0 -14 7 -21.5t20 -7.5
q14 -1 22.5 7t9.5 21q0 12 -8 20.5t-20 8.5q-14 1 -22.5 -7t-8.5 -21zM1310 557q12 1 20 10t7 21q0 12 -9 20.5t-20 8.5q-13 -1 -21.5 -10.5t-7.5 -21.5t10 -20.5t21 -7.5v0zM877 1046q-12 0 -21 -9t-8 -20q0 -12 9 -20.5t20 -8.5q13 0 22 9.5t8 21.5q0 12 -9 20t-21 7v0z
M1074 1077q-12 0 -21 -8t-9 -20q-1 -12 7.5 -20.5t20.5 -9.5q12 0 21 8t9 20t-8 20.5t-20 9.5v0zM1168 1046q-12 0 -20 -8t-8 -21q0 -12 8 -20t20 -8q13 0 21 8t8 20q0 13 -8 21t-21 8zM1102 416q0 12 -8.5 20.5t-20.5 8.5t-20.5 -8.5t-8.5 -20.5t8.5 -20.5t20.5 -8.5
q11 -1 20 8t9 21v0zM768 507q-1 -13 7 -21t21 -9q12 0 20.5 7.5t8.5 20.5q1 12 -7 20.5t-21 8.5q-12 1 -20.5 -7t-8.5 -20v0zM1340 811q-13 0 -21.5 -8t-8.5 -20t8.5 -21t20.5 -9t20.5 8t8.5 20q0 13 -8 21t-20 9v0zM739 906q-12 0 -21 -8t-10 -20q0 -11 8.5 -20t20.5 -9
q12 -1 21 7.5t9 20.5q1 11 -8 20t-20 9v0zM1197 446q0 12 -8 21t-20 9t-20.5 -8.5t-8.5 -20.5q-1 -12 7.5 -20.5t20.5 -9.5q11 0 20 8.5t9 20.5zM1310 682q0 -12 8.5 -20.5t20.5 -8.5t20.5 8.5t8.5 20.5t-8.5 20.5t-20.5 8.5t-20.5 -8.5t-8.5 -20.5zM797 988
q-12 0 -20.5 -8.5t-8.5 -20.5t8.5 -21t19.5 -9q12 0 20.5 8.5t8.5 20.5t-8.5 21t-19.5 9v0z" />
    <glyph glyph-name="uniE827" unicode="&#xe827;" horiz-adv-x="1755" 
d="M1659 1513q-48 48 -106.5 72t-126.5 24h-1097q-68 0 -126 -24t-106 -72q-49 -49 -73 -107t-24 -126v-1097q0 -68 24 -126.5t73 -106.5q48 -48 106 -72t126 -24h1097q68 0 126.5 24t106.5 72q48 49 72 107t24 126v1097q0 68 -24 126t-72 107v0zM1436 897q0 -20 -15 -34.5
t-35 -14.5t-34.5 15t-13.5 35q0 20 15 34.5t35 14.5q20 -1 34 -15.5t14 -34.5v0zM431 702q18 0 29.5 -12t11.5 -29q0 -18 -12 -29.5t-30 -11.5q-17 0 -28.5 12.5t-11.5 30.5q0 16 12 27.5t29 11.5v0zM390 803q0 17 12 29t29 12t29 -12t12 -29q0 -18 -12 -30t-29 -12
t-29 12.5t-12 29.5v0zM466 733q1 13 11 23t24 10q15 0 24.5 -10t9.5 -24t-10 -24.5t-24 -10.5t-24.5 11t-10.5 25v0zM559 1010q-18 0 -31 12.5t-12 29.5q0 17 12.5 29t29.5 12q18 0 30 -12t12 -29q0 -18 -12 -30t-29 -12v0zM608 953q0 -14 -11 -24.5t-24 -10.5
q-14 0 -24 10.5t-11 23.5q0 16 9.5 26t25.5 10q14 0 24.5 -10.5t10.5 -24.5v0zM554 848q0 -14 -10.5 -24.5t-23.5 -10.5q-15 0 -25.5 11t-10.5 25q1 14 11 24t24 10q15 0 25 -10t10 -25zM569 810q11 -1 19.5 -9.5t8.5 -20.5q-1 -11 -9.5 -19.5t-20.5 -8.5t-20.5 9t-7.5 21
q0 12 9 20t21 8zM520 650q14 -1 24 -11t9 -24q0 -14 -10 -24t-24 -10t-24 10t-10 24q0 15 10 25t25 10v0zM558 454q17 0 29.5 -12.5t12.5 -29.5t-12.5 -29.5t-29.5 -12.5t-29.5 13t-12.5 29q0 17 12.5 29.5t29.5 12.5zM572 475q-14 0 -24 11t-10 25q1 15 11 24.5t25 9.5
q14 0 24 -10.5t10 -24.5t-11 -24.5t-25 -10.5v0zM539 683q0 12 8.5 20t20.5 8t20.5 -8.5t7.5 -20.5q0 -11 -8.5 -19.5t-20.5 -8.5t-20 8.5t-8 20.5v0zM594 733q0 9 7.5 16t17.5 6q10 0 16.5 -7t6.5 -16q0 -10 -7 -17t-17 -7t-17 7.5t-7 17.5v0zM1088 746q-8 0 -13.5 6
t-5.5 14t6 13t14 5t13.5 -5.5t5.5 -13.5q-1 -8 -6.5 -13.5t-13.5 -5.5v0zM1107 698q0 -8 -5.5 -13.5t-13.5 -5.5q-7 0 -13 5.5t-6 13.5t5.5 14t13.5 6t14 -5.5t5 -14.5v0zM1101 812q0 11 6.5 17.5t17.5 6.5q10 0 16.5 -7t6.5 -17t-7 -17t-17 -7t-16.5 7t-6.5 17v0zM1099 925
q-12 1 -20 9t-8 19q0 12 8 20.5t20 8.5q13 0 21 -8t8 -21q0 -12 -8.5 -20t-20.5 -8v0zM1088 908q9 0 16.5 -7t7.5 -17q-1 -9 -8 -16.5t-17 -7.5q-9 0 -16.5 7.5t-7.5 17.5q1 9 8 16.5t17 6.5zM1069 848q8 0 13.5 -6t4.5 -14q0 -8 -6 -13.5t-15 -5.5q-9 1 -13.5 6t-4.5 14
t6 14.5t15 4.5zM1028 600q8 1 14 -4.5t7 -14.5q0 -8 -5.5 -13.5t-14.5 -6.5q-8 0 -14.5 6t-6.5 14q0 7 6 13t14 6zM1009 883q0 8 5.5 13.5t13.5 6.5q8 0 14 -5.5t6 -13.5q1 -8 -5 -14.5t-14 -6.5t-14.5 6t-5.5 14v0zM1029 918q-9 0 -16 7t-7 17q1 10 8 16.5t17 6.5t16.5 -7
t6.5 -17q0 -9 -7.5 -16t-17.5 -7v0zM1020 983q-12 0 -20.5 8.5t-8.5 20.5q0 11 8.5 19.5t20.5 8.5t20 -8.5t8 -20.5q0 -11 -8.5 -19.5t-19.5 -8.5v0zM994 922q0 -8 -5.5 -13.5t-14.5 -5.5q-8 0 -13.5 5.5t-5.5 13.5t5.5 13.5t13.5 5.5q9 0 14.5 -5.5t5.5 -13.5v0zM994 1055
q-14 0 -24.5 10.5t-10.5 24.5t10.5 24.5t24.5 9.5q15 0 25 -10t9 -25q0 -14 -10 -24t-24 -10zM981 979q0 -10 -6.5 -16.5t-16.5 -7.5q-9 0 -16 6.5t-7 15.5q-1 11 5.5 18t16.5 7t17 -7t7 -16v0zM926 1013q-12 0 -20.5 8.5t-8.5 20.5t9.5 21t20.5 8q12 0 20 -8.5t8 -20.5
q0 -13 -8 -21t-21 -8v0zM864 943q0 -8 -5.5 -14t-13.5 -6q-9 0 -15 5.5t-6 14.5q0 8 5.5 13.5t13.5 5.5q9 0 15.5 -5.5t5.5 -13.5zM853 991q0 10 7 17t17 8q9 0 17 -7t8 -17q0 -9 -7 -16.5t-16 -8.5q-10 0 -18 7t-8 17v0zM843 541q8 1 14.5 -5t6.5 -14t-5.5 -14t-13.5 -7
q-7 0 -13.5 5.5t-7.5 13.5q0 8 5.5 14t13.5 7v0zM877 496q10 0 17 -6.5t7 -16.5t-6.5 -17t-16.5 -7t-17.5 7t-6.5 17q0 9 7 16t16 7v0zM892 521q0 8 5.5 14t13.5 6q8 -1 13.5 -6.5t5.5 -13.5t-5.5 -14t-13.5 -6t-14 6t-5 14v0zM910 923q-8 1 -13.5 6.5t-5.5 13.5
q1 8 6.5 13.5t14.5 5.5q8 -1 13 -6.5t5 -13.5t-6 -13.5t-14 -5.5v0zM878 1074q-15 0 -25.5 10.5t-9.5 24.5q0 14 10.5 24t23.5 10q15 0 25 -10t10 -25t-10 -24.5t-24 -9.5v0zM857 1041q0 -12 -8.5 -20t-20.5 -8t-20 8.5t-8 19.5q-1 13 8 21.5t21 8.5t20 -9t8 -21v0zM821 979
q0 -10 -6.5 -17t-17.5 -7q-9 0 -16 6.5t-7 16.5q-1 10 6 17t17 7t17 -6.5t7 -16.5v0zM800 923q1 -8 -5 -14t-14 -6t-14 5.5t-6 13.5q0 7 5.5 13t13.5 6q8 1 14 -4.5t6 -13.5v0zM762 1055q-14 0 -24.5 10t-10.5 24q0 15 9.5 25t23.5 10q14 1 24.5 -8.5t10.5 -23.5
q1 -15 -9 -25.5t-24 -11.5v0zM734 1040q12 0 20.5 -8t8.5 -20t-7.5 -20.5t-19.5 -8.5q-12 -1 -20.5 7.5t-8.5 20.5q-1 12 7 20.5t20 8.5zM726 965q10 0 16.5 -7t5.5 -17q0 -9 -6.5 -16t-15.5 -7q-10 0 -17 7t-7 17t7 16.5t17 6.5v0zM727 863q-8 0 -13.5 6t-5.5 14t5.5 13.5
t13.5 5.5t13.5 -5.5t5.5 -13.5t-6 -14t-13 -6v0zM746 580q-1 -8 -6.5 -13t-13.5 -5t-13.5 5.5t-5.5 14.5q1 8 6.5 13t13.5 5q9 0 14 -5.5t5 -14.5v0zM707 828q0 -8 -6 -13.5t-14 -4.5q-8 0 -13.5 6t-5.5 13q0 8 6 13.5t14 5.5t13.5 -6t5.5 -14zM666 746q-8 0 -13.5 5.5
t-5.5 13.5t6 14t14 6t14 -6t6 -14t-6 -14t-15 -5v0zM687 699q0 -8 -6 -14t-13 -6q-8 -1 -14.5 5.5t-6.5 14.5q0 7 6 13t14 6t14 -5.5t6 -13.5v0zM667 861q-9 0 -16 7t-7 16q0 10 7.5 17t16.5 7t16 -7t7 -16q0 -10 -7 -17.5t-17 -6.5v0zM656 925q-12 0 -20.5 8.5t-8.5 20.5
q0 11 8.5 19.5t20.5 8.5t20 -8t8 -20t-8 -20.5t-20 -8.5v0zM631 836q10 0 17 -7t7 -17q0 -9 -7 -16.5t-16 -7.5q-11 0 -18.5 7.5t-7.5 16.5q1 10 8 17t17 7v0zM632 675q9 0 16 -7t7 -16q0 -10 -7.5 -17t-17.5 -7q-10 1 -16.5 8t-6.5 17q1 9 8 16t17 6zM657 539
q12 -1 19.5 -9t7.5 -20q0 -13 -8 -21t-20 -8q-12 -1 -21 8t-9 21t9.5 20.5t21.5 8.5v0zM667 556q-9 0 -16 6.5t-7 16.5t7 17t17 7t16.5 -7t6.5 -16q0 -10 -6.5 -17t-17.5 -7v0zM687 615q-8 0 -13.5 6t-5.5 14t6 14t14 6q7 -1 13 -7t6 -13q0 -8 -6 -14t-14 -6v0zM726 546
q9 0 16 -7t7 -18q-1 -10 -7.5 -16.5t-16.5 -6.5q-11 0 -17.5 7t-6.5 17q1 10 8 17t17 7v0zM734 481q13 0 21 -8t9 -20q0 -12 -8.5 -21t-20.5 -9t-20.5 8.5t-8.5 20.5t8 20t20 9v0zM760 541q0 8 6.5 14.5t14.5 6.5q7 0 13.5 -6.5t6.5 -14.5q-1 -8 -6 -13.5t-14 -5.5
q-7 -1 -13.5 5t-7.5 14v0zM798 509q10 0 16.5 -7.5t6.5 -17.5q0 -9 -7.5 -16t-16.5 -7q-10 0 -16.5 7.5t-6.5 17.5t7 17t17 6v0zM828 451q12 0 20.5 -8.5t8.5 -20.5t-8.5 -20.5t-19.5 -8.5q-12 0 -20.5 8.5t-8.5 20.5q0 11 8.5 20t19.5 9v0zM878 390q14 0 24 -10.5t10 -24.5
t-10 -24t-24 -10q-14 -1 -24.5 10t-10.5 25t10.5 24t24.5 10zM898 422q0 12 9 20.5t20 8.5t19.5 -9t8.5 -20q0 -12 -8.5 -20.5t-20.5 -8.5q-11 0 -19.5 9t-8.5 20v0zM934 485q0 10 7 17t16 7q10 0 17 -7t7 -17q0 -9 -6.5 -16t-16.5 -8q-10 0 -17 7t-7 17v0zM974 522
q-8 0 -13.5 6t-5.5 14t6 13.5t14 5.5t13.5 -6t5.5 -14q-1 -8 -6.5 -13.5t-13.5 -5.5zM1021 481q12 0 20 -8t8 -21q0 -12 -9 -21t-21 -8q-11 0 -19.5 9t-9.5 20q0 12 9 20.5t22 8.5v0zM1030 498q-10 0 -17 7t-7 17q-1 9 6.5 16.5t16.5 7.5q11 0 18 -7t7 -17t-7 -17t-17 -7v0z
M1048 633q0 9 5.5 15.5t13.5 6.5t14 -5.5t6 -13.5q0 -9 -5 -15t-13 -6t-14 5.5t-7 12.5v0zM1087 603q10 0 17 -7t7 -16q1 -10 -6.5 -17t-17.5 -7t-17 7t-7 17q1 9 7.5 16t16.5 7v0zM1101 539q11 -1 19 -9.5t8 -20.5t-8.5 -20t-20.5 -8q-11 0 -19.5 8.5t-8.5 20.5t8.5 20.5
t21.5 8.5v0zM1126 628q-11 0 -18 6.5t-7 16.5t7 17t16 7q10 0 16.5 -6.5t7.5 -16.5q0 -10 -6.5 -16.5t-15.5 -7.5v0zM1137 708q-9 0 -16.5 7.5t-7.5 16.5q1 10 7.5 16.5t16.5 6.5t16.5 -6.5t7.5 -15.5q0 -10 -7 -17.5t-17 -7.5v0zM1197 1010q-18 1 -29.5 12.5t-11.5 29.5
t12.5 29.5t29.5 10.5q17 0 28.5 -12t11.5 -29t-12 -29t-29 -12v0zM1270 849q1 -14 -9.5 -25t-24.5 -11t-24.5 10.5t-10.5 24.5t10 24t24 11q15 0 25 -9.5t10 -24.5zM1182 987q14 0 24.5 -10t10.5 -23q0 -14 -10.5 -25t-24.5 -10q-14 0 -24 10.5t-10 23.5q0 15 10 24.5
t24 9.5v0zM1217 782q0 -12 -9 -21t-20 -9q-12 0 -20.5 8t-8.5 20q0 13 8 21.5t21 8.5q11 0 20 -8.5t9 -19.5zM1188 711q12 0 20 -8.5t8 -19.5q0 -12 -8.5 -20.5t-19.5 -8.5q-12 0 -20.5 8.5t-8.5 20.5t8.5 20t20.5 8v0zM1197 454q17 0 29 -12.5t12 -29.5t-12.5 -29.5
t-29.5 -11.5q-16 0 -28 12t-12 29t12 29.5t29 12.5v0zM1148 511q0 14 10 24t24 10q15 0 25 -10.5t10 -24.5q0 -13 -10 -23.5t-24 -10.5t-24.5 10.5t-10.5 24.5v0zM1236 581q-14 0 -24.5 10t-10.5 24t10.5 24.5t25.5 10.5q14 -1 23.5 -11t9.5 -24t-10 -24t-24 -10zM1253 696
q-14 1 -24 12t-9 25q0 15 10.5 24.5t25.5 8.5q14 0 24 -10.5t9 -24.5q0 -14 -11 -24.5t-25 -10.5zM1325 702q17 0 29 -12t12 -29t-12.5 -29t-29.5 -12t-29.5 12t-12.5 29q-1 17 12 29.5t31 11.5zM1324 761q-17 0 -29.5 12.5t-12.5 29.5q0 16 12.5 28.5t29.5 12.5t29.5 -12.5
t12.5 -29.5q0 -16 -12.5 -28.5t-29.5 -12.5zM1311 1096q21 -1 35 -15t14 -35q0 -20 -14.5 -34.5t-34.5 -14.5q-21 1 -35.5 15.5t-13.5 34.5q0 20 14.5 34.5t34.5 14.5zM1280 979q17 -1 29.5 -13.5t12.5 -28.5q0 -17 -13 -29.5t-30 -11.5q-16 0 -28 12t-12 29t12 29.5
t29 12.5v0zM1191 1215q21 0 35.5 -14t15.5 -35q0 -21 -14 -35.5t-35 -14.5t-36 14.5t-15 34.5q1 20 15.5 34.5t33.5 15.5zM1158 903q12 0 20 -8.5t8 -20.5t-8.5 -20.5t-20.5 -8.5q-11 0 -20 8.5t-9 20.5t9 20.5t21 8.5v0zM1100 1002q-15 0 -25.5 10t-10.5 25q1 14 11 24
t24 10t24 -10t10 -24t-9.5 -24.5t-23.5 -10.5v0zM1124 1135q0 -17 -12 -30t-29 -13q-17 1 -29.5 13t-12.5 29q-1 17 12 30t30 13t29 -12.5t12 -29.5zM1042 1291q21 0 35.5 -14.5t14.5 -34.5q0 -21 -14.5 -35.5t-34.5 -14.5t-34.5 14.5t-14.5 34.5q-1 20 13.5 34.5t34.5 15.5
zM990 1178q0 -17 -12.5 -29.5t-29.5 -12.5q-17 1 -29.5 13.5t-12.5 28.5q1 17 13.5 29.5t29.5 12.5q16 0 28.5 -12.5t12.5 -29.5v0zM878 1317q20 -1 34 -15t14 -35q0 -20 -14.5 -34.5t-34.5 -14.5t-34.5 15t-14.5 35q1 20 15.5 34.5t34.5 14.5v0zM807 1220q17 0 29 -12.5
t12 -29.5t-12.5 -29.5t-29.5 -11.5q-17 0 -29 12.5t-11 29.5q0 17 12 29t29 12v0zM712 1290q20 0 34.5 -14t14.5 -34q0 -21 -14.5 -35.5t-34.5 -14.5t-34.5 14.5t-14.5 34.5q0 21 14 35t35 14v0zM672 1176q17 1 29 -11.5t12 -29.5q1 -17 -11.5 -29.5t-29.5 -12.5
q-16 0 -28.5 12.5t-12.5 29.5t12 29t29 12v0zM657 1071q14 0 23.5 -10.5t9.5 -24.5t-9.5 -24t-24.5 -10q-14 0 -24 10t-10 24t10.5 25t24.5 10v0zM627 875q0 -13 -8.5 -21.5t-20.5 -8.5t-21 9t-9 21q1 11 9.5 19.5t20.5 8.5t20 -8t9 -20zM562 1215q21 0 35.5 -14.5
t14.5 -35.5t-14.5 -35t-35.5 -14q-20 0 -35 15t-14 35q0 20 14.5 34.5t34.5 14.5v0zM516 938q1 -18 -11 -30.5t-30 -12.5q-17 0 -29 12t-12 29q-1 18 11 30t29 13q17 0 29.5 -12t12.5 -29v0zM444 1096q21 0 35 -14.5t15 -34.5q0 -20 -15 -35t-36 -15q-20 0 -34 15t-14 35
q0 21 14 35t35 14zM368 946q20 1 34.5 -13.5t14.5 -34.5q0 -21 -14 -35.5t-35 -14.5q-20 0 -34.5 14.5t-14.5 34.5q0 21 14.5 35t34.5 14zM293 732q0 20 14 34.5t35 14.5q20 0 34.5 -14t14.5 -35q0 -20 -14.5 -34.5t-34.5 -15.5q-20 0 -34.5 14.5t-14.5 35.5v0zM318 566
q1 21 15.5 35.5t35.5 14.5q20 -1 34.5 -15.5t14.5 -34.5q-1 -21 -16 -35.5t-35 -14.5q-20 1 -34.5 16t-14.5 34v0zM445 367q-21 0 -35.5 15t-14.5 36q0 20 14.5 34t34.5 14q21 0 35.5 -14.5t14.5 -34.5t-14.5 -34.5t-34.5 -15.5v0zM474 485q-17 0 -29 12t-12 30q0 17 12 29
t30 12q17 0 29 -11.5t13 -29.5q0 -17 -12.5 -30t-30.5 -12zM563 250q-20 0 -34.5 14t-15.5 34q0 20 14.5 34.5t34.5 14.5q21 0 35 -14t14 -34q1 -21 -13 -35t-35 -14v0zM597 561q-12 0 -20 8.5t-8 20.5q1 12 9.5 20t20.5 8q12 -1 19.5 -9t7.5 -20t-8.5 -20.5t-20.5 -7.5v0z
M657 462q14 0 24 -10.5t10 -24.5q0 -15 -10 -25t-26 -9q-14 0 -24 10t-10 24t11 24.5t25 10.5zM631 330q1 17 12.5 28.5t28.5 11.5q18 0 30 -12t11 -29q0 -18 -12 -29.5t-29 -11.5q-18 0 -29.5 12.5t-11.5 29.5v0zM711 173q-20 1 -34 15t-14 35q1 21 15 34.5t35 13.5
q20 0 34 -14.5t14 -34.5q0 -21 -14.5 -35t-35.5 -14v0zM727 375q0 14 10 23.5t25 9.5q14 0 23.5 -10t9.5 -25q0 -14 -10 -24t-24 -10t-24 10.5t-10 25.5v0zM766 285q0 18 11.5 29.5t29.5 11.5q17 0 29 -11.5t12 -29.5t-12 -29.5t-30 -11.5q-17 1 -28.5 12.5t-11.5 28.5z
M877 146q-20 1 -34.5 15.5t-14.5 34.5q-1 20 14 34.5t35 14.5q21 0 35.5 -14t14.5 -35t-15 -35.5t-35 -14.5zM948 244q-17 0 -29.5 12.5t-12.5 29.5q0 16 12.5 28.5t29.5 12.5q18 0 30.5 -12.5t11.5 -30.5q0 -17 -12.5 -28.5t-29.5 -11.5v0zM959 373q-1 14 9.5 24.5
t25.5 10.5t25 -10t9 -25q0 -14 -10.5 -24.5t-24.5 -10.5q-13 1 -23.5 11.5t-10.5 23.5v0zM1043 173q-20 0 -34.5 14.5t-14.5 34.5q-1 20 13.5 34.5t35.5 14.5q20 1 34.5 -13t14.5 -35t-14.5 -35.5t-34.5 -14.5zM1083 288q-17 0 -29.5 11.5t-12.5 28.5q0 18 12 30t29 12
q18 1 30 -11t12 -29q1 -18 -11 -30t-30 -12zM1099 393q-15 0 -25 10t-10 24t10.5 24.5t24.5 10.5q15 0 25 -10.5t9 -25.5q0 -14 -10 -23.5t-24 -9.5v0zM1129 589q-1 11 7.5 19.5t20.5 9.5q12 0 20 -8t9 -20q0 -12 -8 -20.5t-20 -8.5t-20.5 8t-8.5 20zM1193 250q-21 0 -35 14
t-14 34q-1 21 13.5 35t34.5 14q21 0 35 -14t14 -34q0 -21 -14 -35t-34 -14v0zM1239 527q0 17 12 29t30 12q16 0 28 -12t13 -29q0 -17 -12 -29t-29 -13q-18 0 -30 12.5t-12 29.5zM1311 368q-20 -1 -34.5 14t-14.5 34q-1 21 13.5 35.5t35.5 14.5q20 0 34.5 -14t14.5 -35
q0 -20 -14.5 -34.5t-34.5 -14.5zM1386 516q-20 1 -34.5 15.5t-14.5 34.5t14.5 35t35.5 15t35 -14.5t14 -35.5t-15 -35.5t-35 -14.5zM1413 682q-20 0 -35 15t-14 36q0 20 14.5 34t35.5 14q20 0 34 -14.5t14 -34.5q0 -21 -14.5 -35.5t-34.5 -14.5v0z" />
    <glyph glyph-name="uniE828" unicode="&#xe828;" 
d="M1624 1414v125l90 70h-977l-591 -513h392q-1 -7 -1 -14v-15q0 -71 24.5 -130t74.5 -107q49 -47 110 -70.5t134 -23.5q17 0 33.5 1t32.5 4q-10 -23 -15 -43.5t-5 -39.5q0 -34 15.5 -70t45.5 -75q-67 -5 -125.5 -13t-107.5 -20t-89.5 -28t-72.5 -36q-36 -22 -65 -50
t-51 -62t-33 -70.5t-11 -75.5q0 -33 7 -63t22 -56q14 -27 32.5 -48.5t41.5 -38.5t49.5 -31t56.5 -26q30 -11 60 -19.5t60 -12.5q29 -5 58.5 -7t58.5 -2q46 0 92.5 6t92.5 17q47 12 90.5 30t84.5 41q41 24 74 55.5t58 71.5t38 85t13 95q0 38 -8 72t-23 66q-15 31 -34 56.5
t-41 45.5q-23 20 -45 38t-44 35q-23 16 -41.5 33t-34.5 34q-15 18 -22.5 35t-7.5 34t5.5 33t17.5 32t26.5 31t31.5 30t34 31t34 34q17 17 31 40t26 51t18 60t6 67q0 46 -8.5 84t-25.5 68q-2 4 -4.5 7t-4.5 7l260 213v-78q-25 -3 -27.5 -16.5t-2.5 -31.5v-589
q0 -20 14.5 -34.5t34.5 -14.5h19q20 0 34.5 14.5t14.5 34.5v589q0 18 -2.5 31.5t-27.5 16.5v0zM1133 397q4 -3 13 -9.5t23 -18.5q14 -11 23 -19.5t14 -13.5q5 -6 12.5 -14.5t17.5 -20.5q9 -11 15.5 -21.5t10.5 -18.5q3 -8 6.5 -18.5l7.5 -22.5q3 -12 4.5 -24t1.5 -24
q0 -58 -22.5 -101.5t-66.5 -71.5q-45 -28 -99 -42t-116 -14q-31 0 -62 3.5t-62 10.5q-30 8 -59 19t-57 25q-27 15 -49.5 35.5t-39.5 46.5t-25.5 56t-8.5 64q0 35 9.5 66t29.5 57q19 26 44 45.5t56 33.5q32 13 63.5 23t62.5 15q32 6 64.5 9t65.5 3q16 0 28 -1t20 -2
q2 -1 10.5 -7.5t24.5 -18.5t26.5 -19t13.5 -10v0zM1118 857q-25 -31 -60.5 -46t-80.5 -15q-41 0 -77 16.5t-66 49.5q-31 32 -53 69t-36 79q-13 41 -20 82t-7 81q0 47 12.5 87t36.5 73q25 33 60.5 49.5t81.5 16.5q41 0 76.5 -17.5t67.5 -51.5q31 -35 53 -74t36 -82
q13 -43 20 -84t7 -80q0 -46 -13 -84.5t-38 -68.5v0z" />
    <glyph glyph-name="uniE829" unicode="&#xe829;" horiz-adv-x="1755" 
d="M897 1130q-21 23 -45 34.5t-51 11.5q-31 0 -54.5 -11t-39.5 -33q-17 -22 -25 -48.5t-8 -57.5q0 -27 4.5 -54t13.5 -55t23.5 -52.5t35.5 -46.5q20 -22 44 -32.5t51 -10.5q30 0 53.5 10t40.5 30t25.5 45.5t8.5 56.5q0 26 -4.5 53.5t-13.5 56.5q-9 28 -23.5 54t-35.5 49v0z
M1659 1513q-48 48 -106.5 72t-126.5 24h-1097q-68 0 -126 -24t-106 -72q-49 -49 -73 -107t-24 -126v-1097q0 -68 24 -126.5t73 -106.5q48 -48 106 -72t126 -24h1097q68 0 126.5 24t106.5 72q48 49 72.5 107t24.5 126v1097q0 68 -24.5 126t-72.5 107v0zM1298 1154v-392
q0 -14 -10 -23.5t-23 -9.5h-12q-14 0 -23.5 9.5t-9.5 23.5v392q0 12 1.5 21t18.5 12v52l-174 -142q2 -3 3.5 -5t2.5 -5q12 -20 17.5 -45t5.5 -56q0 -24 -4 -45t-12 -40t-17.5 -34t-20.5 -27t-22.5 -22.5t-22.5 -20.5q-12 -10 -21.5 -20t-17.5 -20q-8 -11 -12 -22t-4 -22
t5.5 -22.5t15.5 -23.5q10 -11 22.5 -22.5t27.5 -22.5t30 -23t30 -25q14 -14 26.5 -31t23.5 -37q10 -21 15 -44t5 -48q0 -34 -8.5 -64t-25.5 -56q-16 -27 -38.5 -48t-49.5 -37q-27 -15 -56 -27t-60 -20t-62 -12t-62 -4q-19 0 -38.5 1.5t-39.5 4.5t-39.5 8.5t-39.5 13.5
t-38 17.5t-33 20.5t-27.5 25.5t-22.5 32.5q-9 17 -14 37t-5 42q0 26 7.5 50.5t21.5 47.5q15 22 34.5 41t43.5 33q42 26 108 42.5t155 22.5q-20 25 -30.5 49.5t-10.5 46.5q0 13 3.5 27t10.5 29q-11 -2 -22 -3t-22 -1q-49 0 -89.5 16t-73.5 47q-33 32 -49.5 71.5t-16.5 86.5
v10t1 9h-261l393 343h652l-60 -47v-83q17 -3 18.5 -12t1.5 -21v0zM900 545q-5 1 -13 1.5t-18 0.5q-22 0 -44 -2t-43 -6t-42 -10t-42 -15t-37.5 -22.5t-29.5 -30.5t-19.5 -37.5t-6.5 -44.5q0 -23 5.5 -43t17.5 -37q11 -17 26 -31t33 -23q19 -10 38 -17.5t40 -12.5
q20 -4 40.5 -6.5t41.5 -2.5q42 0 77.5 9t65.5 28t45 47.5t15 67.5q0 9 -1 17t-4 16q-2 8 -4.5 14.5t-4.5 12.5q-2 5 -6.5 12t-10.5 15q-7 7 -11.5 13t-8.5 10q-3 3 -9.5 9t-15.5 13q-9 8 -15 12.5t-8 6.5q-3 1 -9.5 6t-17.5 13t-17 12t-7 5v0z" />
    <glyph glyph-name="uniE830" unicode="&#xe830;" 
d="M1868 785h-5q-56 38 -109.5 78.5t-106 83.5t-103 89t-99.5 95l-144 150q-44 49 -86.5 101.5t-82.5 103.5l-66 93q-6 4 -13 9t-14 7q-14 6 -29 0.5t-27 -14.5l-118 -155q-72 -88 -149.5 -173t-161 -164.5t-171.5 -152t-180 -135.5q-15 -11 -32.5 -23.5t-22.5 -31.5
q-5 -17 2 -31t17 -24q74 -51 146 -106.5t141.5 -116t136.5 -125t129 -133.5q23 -23 42.5 -46t40.5 -45q37 -49 77.5 -99t74.5 -103q11 -11 16.5 -25.5t22.5 -20.5q13 -4 28 -5.5t27 5.5l16 17q77 108 163.5 210.5t181 198t196.5 183t211 165.5q21 20 52.5 34t32.5 50
q-2 16 -11 31.5t-23 24.5v0zM1670 707q-24 -61 -69 -113t-89 -106q-47 -51 -96 -101t-100 -97.5t-104 -91.5t-109 -83q-23 -16 -51.5 -26.5t-55.5 2.5q-41 21 -79.5 49t-75 59t-72.5 64t-72 65q-42 39 -83.5 81t-80.5 86t-75.5 90t-68.5 93q-9 14 -12.5 30t-3.5 33
q8 33 28 61t41 55q38 48 79 94.5t85 91.5t90 88t92 85l5.5 5.5t7.5 5.5q39 35 79 66t82 61q44 34 93.5 15.5t86.5 -49.5q38 -29 77 -62t74 -67l8 -4q49 -45 95.5 -92.5t90.5 -97t84.5 -101t77.5 -104.5q12 -18 20 -39t1 -46v0zM1615 779q-48 69 -103 134.5t-115 126.5
t-124.5 118.5t-130.5 111.5q-35 24 -74.5 51.5t-84.5 -3.5q-69 -47 -136 -102.5t-131 -116.5t-123.5 -125.5t-112.5 -130.5q-22 -32 -48 -65t-9 -75q12 -32 35.5 -57t41.5 -53q52 -63 109 -123.5t117.5 -117.5t123.5 -109.5t127 -99.5q57 -37 101 0.5t88 64.5q45 36 88.5 75
t85.5 80t83 83.5t80 84.5v3q32 38 64 76.5t56 80.5q11 20 7.5 45t-15.5 43v0zM1005 1151l16 51h2q25 -71 50.5 -141.5t52.5 -140.5l-71 -1l-2 -9l11 -253v-4q-20 -3 -42.5 -3t-42.5 2l-2 3l12 261v2q-15 1 -32.5 0.5t-32.5 1.5l81 231v0zM963 309q5 70 7 136t6 135
q24 -2 46 -1.5t44 1.5l2 -13l12 -259q-29 -4 -59.5 -2.5t-57.5 3.5v0zM1260 632q-64 -20 -134 -29t-140.5 -7t-139 16t-128.5 40q-22 11 -45 28t-31 42q-5 46 33 74t72 45q20 8 40.5 16.5t42.5 9.5q20 -15 41.5 -28t42.5 -27q-41 -10 -84 -26t-62 -60q3 -35 34 -49t58 -23
q48 -13 98 -18.5t100 -3.5t99 11.5t96 25.5q17 11 38 25t19 40q-3 27 -28 41t-46 22q-14 -2 -26.5 -5t-25.5 -7q-6 19 -12.5 38t-14.5 37q42 -11 83 -21.5t84 -18.5v-1q-9 -1 -18.5 -3.5t-17.5 -5.5v-2q24 -12 50.5 -33t26.5 -52q-5 -39 -39.5 -59t-65.5 -32v0z" />
    <glyph glyph-name="uniE831" unicode="&#xe831;" 
d="M1054 775v1q5 2 11.5 4t11.5 2v1q-28 5 -55.5 12t-54.5 14q5 -12 9 -24.5t9 -24.5q8 2 16.5 4t17.5 4q14 -6 30.5 -15.5t18.5 -27.5q2 -17 -12 -26.5t-26 -15.5q-62 -23 -129.5 -25.5t-132.5 14.5q-18 6 -38.5 15.5t-22.5 32.5q13 30 41.5 40.5t55.5 17.5q-14 9 -28 17.5
t-28 18.5q-15 -1 -28.5 -6t-26.5 -11q-23 -12 -48 -30.5t-22 -49.5q5 -16 20.5 -27.5t29.5 -18.5q41 -18 86.5 -27t92.5 -10.5t94 4.5t89 20q21 8 43.5 21t26.5 39q0 21 -17.5 35t-33.5 22v0zM854 847l-7 -174l1 -2q13 -1 28 -1.5t28 1.5v3l-7 169l1 6l47 1q-17 46 -34.5 93
t-33.5 95h-1l-11 -35l-54 -153q10 -2 22 -1.5t21 -0.5v-1v0zM1063 1027l-6 3q-23 23 -49 45t-52 41q-24 21 -57.5 33t-62.5 -10q-27 -20 -54 -41t-53 -44q-2 -1 -4.5 -3.5t-4.5 -3.5q-30 -28 -61 -57t-60 -59t-56.5 -61t-52.5 -62q-14 -19 -27.5 -37.5t-18.5 -40.5
q0 -11 2 -22t8 -20q43 -63 96.5 -122t109.5 -111q48 -43 96 -86.5t103 -71.5q18 -9 37 -2t34 18q38 26 73.5 55.5t69 61t66.5 64.5t64 67q29 36 59 71t47 76q4 16 -1 30t-13 26q-25 36 -52.5 70t-56.5 67t-60 64.5t-63 61.5v0zM1277 697q-16 -28 -37.5 -53.5t-42.5 -51.5v-2
q-53 -56 -108.5 -111.5t-116.5 -103.5q-29 -18 -58.5 -43t-66.5 -1q-43 32 -85 67t-82.5 73t-78.5 78.5t-73 82.5q-11 18 -27 35t-24 38q-12 28 5.5 50t32.5 43q35 44 75 87t82.5 83.5t87.5 77.5t91 69q29 20 55.5 2t49.5 -34q45 -36 87.5 -74.5t82.5 -79t76.5 -84
t68.5 -90.5q8 -12 11 -28.5t-5 -29.5v0zM906 623q-15 -1 -29.5 -1t-30.5 1q-3 -46 -4.5 -90t-4.5 -91q18 -1 38.5 -2t39.5 2l-8 172zM1659 1513q-48 48 -106.5 72t-126.5 24h-1097q-68 0 -126 -24t-106 -72q-49 -49 -73 -107t-24 -126v-1097q0 -68 24 -126.5t73 -106.5
q48 -48 106 -72t126 -24h1097q68 0 126.5 24t106.5 72q48 49 72.5 107t24.5 126v1097q0 68 -24.5 126t-72.5 107v0zM1406 666q-72 -52 -140 -110.5t-131.5 -122t-121 -131.5t-108.5 -141l-11 -11q-8 -5 -18 -4t-18 4q-11 4 -15 14t-11 17q-23 35 -50 68.5t-51 65.5
q-15 15 -28 30.5t-28 30.5q-42 46 -86 89t-90.5 83.5t-94.5 77.5t-97 71q-7 7 -11.5 16t-1.5 21t14.5 20.5t21.5 15.5q62 42 120.5 90.5t114 101.5t107.5 109.5t99 115.5l80 103q8 6 17.5 10t19.5 -1q4 -1 9 -4.5t9 -5.5l44 -62q27 -34 55 -69t58 -68l96 -100q32 -32 66 -63
t68.5 -59.5t70.5 -55.5t73 -52l3 -1q10 -6 16 -16t7 -21q-1 -24 -21.5 -33.5t-35.5 -22.5v0z" />
    <glyph glyph-name="uniE832" unicode="&#xe832;" 
d="M1863 627q-6 25 -12 50.5t-6 50.5q0 23 5 48t11 49q8 33 13.5 67.5t-2.5 66.5q-9 31 -31 58t-46 52q-17 18 -33.5 36.5t-28.5 39.5q-12 22 -20 46.5t-15 49.5q-9 35 -20 66t-33 53q-22 24 -54 36.5t-65 22.5q-24 7 -48 15.5t-45 21.5q-20 12 -39 29.5t-36 35.5
q-25 25 -50.5 47.5t-56.5 31.5q-9 2 -18.5 3.5t-20.5 1.5q-23 0 -46.5 -5t-46.5 -10q-24 -6 -48.5 -10.5t-48.5 -4.5h-2q-23 0 -47 5.5t-48 11.5t-49 11.5t-49 5.5q-10 0 -19 -1t-18 -3q-32 -9 -59 -31.5t-52 -47.5q-17 -17 -35.5 -33.5t-38.5 -28.5q-21 -13 -45 -21
l-48 -16q-35 -10 -66 -22t-53 -35t-33 -55.5t-20 -66.5q-6 -24 -13.5 -48.5t-19.5 -45.5q-11 -21 -28 -40.5t-34 -37.5q-23 -26 -44.5 -52.5t-29.5 -58.5q-7 -30 -1 -62.5t15 -66.5q6 -25 12 -50.5t6 -50.5q0 -24 -5 -48.5t-11 -48.5q-8 -34 -13.5 -68t2.5 -66q9 -31 31 -58
t46 -52q17 -18 33.5 -37t28.5 -39q12 -22 20 -47t14 -49q10 -35 21 -66t32 -54q23 -23 55 -35.5t65 -22.5q24 -7 48 -15.5t44 -21.5q21 -12 40 -29.5t36 -35.5q24 -25 50 -47.5t57 -31.5q9 -2 18.5 -3.5t20.5 -1.5q22 0 46 4.5t47 10.5q24 5 48.5 10t48.5 5h2q23 0 47 -5.5
t48 -11.5q24 -7 49 -12t49 -5q10 0 19 1t18 3q32 9 58.5 31.5t51.5 47.5q18 17 36.5 33.5t38.5 28.5q21 12 45 20.5t48 15.5q34 11 65.5 23t53.5 35t33 55.5t20 66.5q6 24 13.5 48.5t19.5 45.5q11 21 28 40.5t34 37.5q23 25 44.5 52t29.5 58q7 31 1 63.5t-15 66.5v0z
M1024 -31q-154 0 -289.5 60t-236 163.5t-159 242.5t-58.5 297q0 157 58.5 296t159 242.5t236 163.5t289.5 60t289.5 -60t236 -163.5t159 -242.5t58.5 -296q0 -158 -58.5 -297t-159 -242.5t-236 -163.5t-289.5 -60zM1024 1415q-141 0 -266 -53.5t-217.5 -146.5t-146.5 -217.5
t-54 -265.5q0 -142 54 -266.5t146.5 -217.5t217.5 -147t266 -54q142 0 266.5 54t217.5 147t146.5 217.5t53.5 266.5q0 141 -53.5 265.5t-146.5 217.5t-217.5 146.5t-266.5 53.5v0zM929 1172q0 13 8.5 21t20.5 8h144q12 0 20.5 -8.5t8.5 -20.5v-122q0 -12 -8.5 -20.5
t-20.5 -8.5h-144q-12 0 -20.5 8.5t-8.5 20.5v122v0zM1239 322q0 -12 -8.5 -20.5t-19.5 -8.5h-361q-12 0 -20.5 8.5t-8.5 20.5v129q0 12 8.5 20.5t20.5 8.5h79v260h-79q-12 0 -20.5 8.5t-8.5 20.5v122q0 12 8.5 20.5t20.5 8.5h252q12 0 20.5 -8.5t8.5 -20.5v-411h80
q11 0 19.5 -8.5t8.5 -20.5v-129v0z" />
    <glyph glyph-name="uniE833" unicode="&#xe833;" horiz-adv-x="1755" 
d="M878 1240q-103 0 -193 -40t-157.5 -109t-106.5 -161.5t-39 -197.5q0 -106 39 -198.5t106.5 -161.5t157.5 -109t193 -40q102 0 192.5 40t157.5 109t106 161.5t39 198.5q0 105 -39 197.5t-106 161.5t-157.5 109t-192.5 40v0zM878 276q-95 0 -178 35.5t-144.5 97.5
t-97.5 145t-36 178q0 94 36 177t97.5 145t144.5 97.5t178 35.5q94 0 177 -35.5t145 -97.5t98 -145t36 -177q0 -95 -36 -178t-98 -145t-145 -97.5t-177 -35.5zM1002 564h-53v274q0 8 -5.5 13.5t-13.5 5.5h-168q-8 0 -14 -5.5t-6 -13.5v-82q0 -8 6 -13.5t14 -5.5h53v-173h-53
q-8 0 -14 -5.5t-6 -13.5v-87q0 -8 6 -13.5t14 -5.5h240q8 0 13.5 5.5t5.5 13.5v87q0 8 -5.5 13.5t-13.5 5.5zM834 925h96q8 0 13.5 5.5t5.5 13.5v82q0 8 -5.5 13.5t-13.5 5.5h-96q-8 0 -13.5 -5.5t-5.5 -13.5v-82q0 -8 5.5 -13.5t13.5 -5.5zM1659 1513q-48 48 -106.5 72
t-126.5 24h-1097q-68 0 -126 -24t-106 -72q-49 -49 -73 -107t-24 -126v-1097q0 -68 24 -126.5t73 -106.5q48 -48 106 -72t126 -24h1097q68 0 126.5 24t106.5 72q48 49 72.5 107t24.5 126v1097q0 68 -24.5 126t-72.5 107v0zM1446 575q-5 -20 -19.5 -38t-29.5 -35
q-12 -12 -23 -25t-18 -27q-8 -14 -13 -30.5t-9 -32.5q-6 -22 -13.5 -44t-22.5 -37q-14 -15 -35 -23t-44 -15q-16 -5 -32 -10.5t-30 -14.5q-14 -8 -26 -19l-24 -22q-16 -17 -34 -32t-39 -21l-12 -2t-13 -1q-16 0 -32.5 3.5t-32.5 8.5q-16 4 -32 7.5t-32 3.5h-1
q-16 0 -32.5 -3t-32.5 -7q-15 -4 -31 -7t-31 -3q-7 0 -13.5 1t-12.5 3q-20 6 -37.5 21t-33.5 31q-12 12 -24.5 23.5t-25.5 20.5q-14 8 -30 13.5t-32 10.5q-22 7 -43.5 15.5t-36.5 23.5q-14 15 -21.5 36t-13.5 43q-4 17 -9.5 33.5t-13.5 31.5q-8 13 -19 26t-22 24
q-16 17 -31 35t-20 39q-6 21 -2.5 44t9.5 45q4 16 7.5 32.5t3.5 32.5q-1 17 -4.5 33.5t-8.5 33.5q-6 23 -10 44.5t1 41.5q5 21 19.5 39t30.5 35q11 12 22 25t19 27t13 30.5t9 32.5q6 22 13 44t22 37t35.5 23t43.5 15q16 5 32.5 10.5t30.5 14.5q13 8 25 19l24 22
q17 17 34.5 32t39.5 20q6 2 12 3t13 1q15 0 31.5 -4t33.5 -8q15 -4 31.5 -7.5t31.5 -3.5h2q16 0 32 3t32 7q16 3 31.5 6.5t30.5 3.5q7 0 13.5 -1t12.5 -3q21 -6 38 -21t33 -31q12 -12 24.5 -23.5t26.5 -20.5q13 -8 29 -13.5t32 -10.5q22 -7 43.5 -15.5t36.5 -23.5
q14 -15 21.5 -36t13.5 -44q5 -16 10 -32.5t13 -31.5q8 -14 19 -26.5t23 -24.5q16 -16 30.5 -34t20.5 -39q5 -21 1.5 -44t-9.5 -45q-4 -16 -7 -32.5t-3 -32.5q0 -17 3.5 -33.5t8.5 -33.5q6 -23 10 -44.5t-1 -42.5v0z" />
    <glyph glyph-name="uniE834" unicode="&#xe834;" 
d="M1224 587q7 -45 28.5 -84t54.5 -68t75 -45.5t89 -16.5q52 0 97.5 19.5t79 53.5t53.5 79.5t20 96.5q0 52 -20 97.5t-53.5 79.5t-79 53.5t-97.5 19.5q-47 0 -89 -16.5t-75 -45.5t-54.5 -68t-28.5 -84h-653q1 44 2 86t2 82l491 254q23 -31 58 -50t76 -19q69 0 117 48.5
t48 116.5q0 14 -2.5 27.5t-6.5 26.5l155 79l-33 63l-159 -82q-22 24 -53 37.5t-66 13.5q-68 0 -116.5 -48.5t-48.5 -116.5q0 -8 1 -15.5t2 -15.5l-461 -238q2 53 4 102.5t5 95.5l-259 -35q12 -63 20.5 -133.5t14 -149t8.5 -164.5t3 -179q0 -83 -1.5 -161.5t-3.5 -152
t-5.5 -143t-8.5 -133.5h234q-3 58 -6 117.5t-5.5 120.5t-4 123.5t-1.5 125.5l467 -241q-1 -8 -2 -15.5t-1 -15.5q0 -68 48.5 -116.5t116.5 -48.5q35 0 66 13.5t53 37.5l159 -82l32 63l-154 79q4 13 6.5 26.5t2.5 27.5q0 68 -48 116.5t-117 48.5q-41 0 -76 -19t-58 -50
l-496 256v11.5v11.5q0 55 0.5 107.5t0.5 102.5v-67h653v0zM480 1306q39 0 69 12t51 36t32 52.5t11 61.5q0 29 -9.5 53.5t-27.5 45.5q-19 21 -44 31.5t-56 10.5q-39 0 -69.5 -12t-52.5 -36t-33 -52t-11 -60q0 -30 9.5 -55t27.5 -46t44 -31.5t59 -10.5v0z" />
    <glyph glyph-name="uniE835" unicode="&#xe835;" horiz-adv-x="1755" 
d="M1659 1513q-48 48 -106.5 72t-126.5 24h-1097q-68 0 -126 -24t-106 -72q-49 -49 -73 -107t-24 -126v-1097q0 -68 24 -126.5t73 -106.5q48 -48 106 -72t126 -24h1097q68 0 126.5 24t106.5 72q48 49 72.5 107t24.5 126v1097q0 68 -24.5 126t-72.5 107v0zM451 1285
q15 16 35 24t46 8q21 0 38 -7t29 -21t18 -30.5t6 -35.5q0 -22 -7 -41t-21 -35q-14 -17 -34 -25t-46 -8q-22 0 -39 7t-30 21q-12 14 -18 31t-6 37q0 21 7.5 40t21.5 35v0zM1176 493q-63 0 -109.5 41t-55.5 101h-435v45q0 -34 -0.5 -69t-0.5 -71v-8v-7l331 -171
q15 21 38.5 33.5t50.5 12.5q46 0 78 -32.5t32 -77.5q0 -10 -1.5 -19t-4.5 -17l103 -53l-22 -42l-106 55q-15 -16 -35 -25t-44 -9q-45 0 -77.5 32t-32.5 78q0 5 0.5 10t1.5 10l-311 161q0 -42 1 -83.5t2.5 -82t3.5 -80.5t4 -79h-156q3 43 5.5 89.5t4 95.5t2 101t0.5 108
q0 62 -1.5 119t-5.5 109.5t-9.5 99.5t-13.5 89l173 24q-2 -31 -3.5 -64t-2.5 -69l307 159q-1 5 -1.5 10t-0.5 11q0 45 32.5 77.5t77.5 32.5q24 0 44 -9.5t35 -24.5l106 55l22 -42l-103 -53q3 -9 4.5 -18t1.5 -18q0 -46 -32 -78t-78 -32q-27 0 -50.5 12.5t-38.5 33.5
l-328 -170q-1 -26 -1.5 -54t-0.5 -58h435q9 61 55.5 102t109.5 41q69 0 117.5 -48.5t48.5 -117.5t-48.5 -117.5t-117.5 -48.5v0z" />
    <glyph glyph-name="uniE836" unicode="&#xe836;" 
d="M2046 236q-7 61 -41.5 104.5t-98.5 57.5q-14 4 -29 4.5t-30 0.5q-58 -1 -92.5 26.5t-43.5 84.5q-4 25 -3.5 51t1.5 51q2 27 6 53.5t11 51.5q7 28 12.5 55.5t5.5 56.5q-1 14 -1.5 28t-2.5 28q-7 45 -27 84.5t-50 71t-69 53.5t-84 32q-44 10 -87.5 6t-83 -19.5t-74 -42.5
t-60.5 -64q-21 -28 -45.5 -54t-49.5 -49q-36 -32 -79.5 -33t-81.5 26q-29 22 -54.5 48.5t-45.5 56.5q-35 51 -84 83t-104 43.5t-112.5 1t-108.5 -44.5q-41 -27 -69.5 -61.5t-44 -75t-19 -86t4.5 -94.5q4 -27 11 -54t12 -54q6 -37 8.5 -75.5t-4.5 -76.5q-7 -44 -31 -70
t-65 -34q-11 -2 -22 -2.5t-23 -1.5h-19t-19 -1q-34 -5 -61.5 -22t-52.5 -40q-16 -14 -26 -32t-14 -38q-2 -13 -4 -25.5t-2 -25.5q0 -41 9 -79.5t39 -70.5q37 -40 82.5 -58t100.5 -7q41 7 73 29.5t53 54t28.5 70.5t-1.5 79q-5 20 -12.5 39t-13.5 38q-13 42 -6.5 80t38.5 70
q15 16 34 27.5t40 20.5q48 19 98.5 23.5t101.5 -1.5q33 -5 64.5 -15.5t59.5 -29.5q51 -34 61.5 -85.5t-17.5 -101.5q-35 -66 -20.5 -137.5t73.5 -117.5q38 -29 81 -38.5t90 -4.5q55 5 97.5 34.5t65.5 72.5t24 94t-27 101q-24 41 -18.5 86.5t43.5 79.5q15 15 33 25.5t38 17.5
q47 17 94.5 21t96.5 -2q36 -5 70 -16.5t64 -33.5q36 -26 52.5 -60.5t9.5 -78.5q-3 -17 -8.5 -33.5t-11.5 -31.5q-12 -29 -15.5 -59t1.5 -60q11 -68 62 -113t121 -48q62 -2 120 37t72 107q6 23 7.5 45.5t-1.5 46.5v0zM1025 408q-46 0 -83.5 17.5t-64 46t-40.5 64.5t-14 74
q1 42 16.5 78t43 63t64.5 42.5t79 15.5t78.5 -15.5t63.5 -43t43 -63.5t15 -78q0 -37 -14 -73t-40 -64.5t-63.5 -46t-83.5 -17.5v0z" />
    <glyph glyph-name="uniE837" unicode="&#xe837;" horiz-adv-x="1755" 
d="M879 903q-60 0 -102 -41.5t-42 -100.5q-1 -54 38 -99t105 -45q67 0 105.5 45t38.5 98q0 59 -41.5 101t-101.5 42v0zM1659 1513q-48 48 -106.5 72t-126.5 24h-1097q-68 0 -126 -24t-106 -72q-49 -49 -73 -107t-24 -126v-1097q0 -68 24 -126.5t73 -106.5q48 -48 106 -72
t126 -24h1097q68 0 126.5 24t106.5 72q48 49 72.5 107t24.5 126v1097q0 68 -24.5 126t-72.5 107v0zM1604 428q-11 -48 -52.5 -76t-85.5 -27q-49 2 -86 34.5t-45 80.5q-3 22 -0.5 43t11.5 42q4 11 8 22.5t6 23.5q5 32 -7 57t-38 43q-21 15 -45.5 23.5t-49.5 11.5q-35 5 -69 2
t-67 -15q-15 -5 -27.5 -12.5t-24.5 -17.5q-26 -25 -30 -57.5t13 -62.5q40 -70 2 -139t-117 -76q-33 -3 -64 3.5t-58 27.5q-42 32 -52.5 83.5t15.5 98.5q19 36 12 72.5t-44 61.5q-20 13 -42.5 20.5t-45.5 10.5q-37 5 -73 2t-71 -17q-14 -6 -27.5 -14.5t-24.5 -19.5
q-23 -24 -28 -50.5t5 -56.5q4 -14 9.5 -27.5t8.5 -27.5q13 -58 -19 -107t-90 -60q-39 -8 -71.5 5t-59.5 41q-21 23 -27.5 50.5t-6.5 57.5q0 9 1.5 18t3.5 18q3 15 10 27.5t18 22.5q18 16 37.5 28.5t43.5 15.5q7 1 14 1h14q8 1 16 1t16 2q29 6 46 24.5t22 49.5q5 27 3.5 54.5
t-6.5 54.5q-3 19 -8 38t-8 39q-11 69 11 128.5t80 98.5q37 24 78 31.5t80.5 -1t74.5 -31.5t59 -59q15 -21 33 -40t39 -35q27 -19 58.5 -18.5t56.5 23.5q18 17 35.5 35.5t32.5 38.5q37 52 96 75.5t122 9.5q65 -14 109.5 -60.5t54.5 -111.5q1 -10 1.5 -20t1.5 -20
q0 -21 -4 -40.5t-9 -39.5q-5 -18 -7.5 -37t-4.5 -38q-1 -18 -1 -36.5t3 -36.5q6 -40 30.5 -60t65.5 -19q11 0 21.5 -0.5t21.5 -2.5q45 -11 70 -41.5t30 -75.5q2 -16 0.5 -32.5t-4.5 -32.5v0z" />
    <glyph glyph-name="uniE838" unicode="&#xe838;" 
d="M1534 623q-8 20 -18 39t-22 37v441q0 47 -9 92t-26.5 87.5t-43 80.5t-58.5 72q-33 33 -71.5 58.5t-80.5 43t-87.5 26.5t-92.5 9v0v0q-47 0 -92 -9t-87.5 -26.5t-81 -43t-71.5 -58.5t-58.5 -71.5t-43 -81t-26.5 -87.5t-9 -92v-64h188v64q0 56 21 107.5t61 91.5t91.5 61
t107.5 21v0v0q58 0 109.5 -22t89.5 -60.5t60 -89.5t22 -109v-257q-16 10 -32.5 18.5t-34.5 15.5q-51 22 -105 33t-110 11t-110 -11t-105 -33q-50 -21 -94 -50.5t-82 -67.5q-38 -39 -68 -83t-51 -93q-22 -52 -32.5 -106t-10.5 -110t10.5 -110t32.5 -105q21 -50 51 -94t68 -82
t82 -68t94 -51q51 -21 105 -32t110 -11t110 11t105 32q50 21 94 51t82 68t68 82t51 94q22 51 32.5 105t10.5 110t-10.5 110t-32.5 106v0zM1024 42q-76 0 -142.5 28.5t-116 78.5t-78.5 116.5t-29 141.5q0 76 29 142.5t78.5 116t116 78.5t142.5 29t142.5 -29t116 -78.5
t78.5 -116t29 -142.5q0 -75 -29 -141.5t-78.5 -116.5t-116 -78.5t-142.5 -28.5zM1181 406q0 -65 -45.5 -110.5t-109.5 -45.5t-109.5 45.5t-45.5 110.5q0 64 45.5 109.5t109.5 45.5t109.5 -45.5t45.5 -109.5z" />
    <glyph glyph-name="uniE839" unicode="&#xe839;" horiz-adv-x="1755" 
d="M1659 1513q-48 48 -106.5 72t-126.5 24h-1097q-68 0 -126 -24t-106 -72q-49 -49 -73 -107t-24 -126v-1097q0 -68 24 -126.5t73 -106.5q48 -48 106 -72t126 -24h1097q68 0 126.5 24t106.5 72q48 49 72.5 107t24.5 126v1097q0 68 -24.5 126t-72.5 107v0zM1218 372
q-14 -33 -34 -62.5t-45 -55.5q-26 -25 -55.5 -45t-62.5 -34q-34 -14 -70 -21.5t-73 -7.5q-38 0 -74 7.5t-70 21.5q-33 14 -62.5 34t-54.5 45q-26 26 -45.5 55.5t-33.5 62.5q-15 34 -22 70t-7 73q0 38 7 74t22 70q14 33 33.5 62.5t45.5 54.5q25 26 54.5 45.5t62.5 33.5
q34 15 70 22t74 7q37 0 73 -7t70 -22q12 -5 23 -10.5t22 -11.5v171q0 77 -55 132t-132 55h-1q-37 0 -71.5 -14t-60.5 -41q-27 -26 -41 -60.5t-14 -71.5v-43h-125v43q0 62 23.5 119.5t67.5 101.5q45 44 102 68t119 24h0.5h0.5q62 0 119 -24t102 -68q44 -44 67.5 -101.5
t23.5 -119.5v-294q8 -12 14.5 -25t12.5 -26q14 -34 21.5 -70t7.5 -74q0 -37 -7.5 -73t-21.5 -70v0zM878 759q-51 0 -95 -19t-77.5 -52.5t-52.5 -77.5t-19 -95q0 -50 19 -94.5t52.5 -77.5t77.5 -52t95 -19q50 0 94.5 19t77.5 52t52 77.5t19 94.5q0 51 -19 95t-52 77.5
t-77.5 52.5t-94.5 19v0zM879 411q-43 0 -73 30t-30 73t30 73.5t73 30.5t73 -30.5t30 -73.5t-30 -73t-73 -30z" />
    <glyph glyph-name="uniE840" unicode="&#xe840;" 
d="M1309 949q-19 9 -36.5 15t-34.5 8q-17 3 -44.5 4.5t-64.5 1.5h-130v-541h133q39 0 69.5 3t51.5 8q22 5 40 12t32 15q15 8 28 18t25 22q39 39 58 88.5t19 109.5q0 58 -19.5 106t-59.5 85q-14 13 -31 24.5t-36 20.5v0zM1024 1609q-182 0 -342 -69t-279 -188t-188 -279
t-69 -342q0 -181 69 -341t188 -279t279 -188t342 -69t342 69t279 188t188 279t69 341q0 182 -69 342t-188 279t-279 188t-342 69v0zM733 344h-104v727h104v-727zM681 1147q-30 0 -51 20.5t-21 50.5t21 51t51 21q29 0 50 -21t21 -51t-21 -50.5t-50 -20.5zM1535 568
q-14 -34 -34 -63t-46 -55q-27 -26 -57.5 -45.5t-66.5 -32.5q-20 -8 -39 -13.5t-36 -8.5q-17 -2 -50 -3.5t-81 -1.5h-230v726h245q74 0 132.5 -11t102.5 -34q43 -22 77 -54.5t60 -76.5q25 -43 38 -90t13 -98q0 -36 -7 -71t-21 -68v0z" />
    <glyph glyph-name="uniE841" unicode="&#xe841;" horiz-adv-x="1755" 
d="M1111 928q-28 15 -67.5 22.5t-88.5 7.5h-163v-484h153q32 0 54 0.5t33 2.5q12 2 24.5 6t26.5 9q23 9 43.5 22t38.5 30q17 17 30.5 36.5t22.5 41.5q10 22 14.5 45.5t4.5 47.5q0 34 -8.5 65.5t-25.5 60.5t-40 50.5t-52 36.5v0zM1114 587q-8 -8 -17 -14.5t-18 -11.5
q-10 -6 -22 -10.5t-26 -7.5q-15 -4 -35 -6t-46 -2h-89v361h87q25 0 43 -1t29 -3t23 -6t25 -10t24 -13.5t21 -16.5q26 -24 39 -56t13 -71q0 -40 -12.5 -72.5t-38.5 -59.5v0zM614 473h69v485h-69v-485zM1659 1513q-48 48 -106.5 72t-126.5 24h-1097q-68 0 -126 -24t-106 -72
q-49 -49 -73 -107t-24 -126v-1097q0 -68 24 -126.5t73 -106.5q48 -48 106 -72t126 -24h1097q68 0 126.5 24t106.5 72q48 49 72.5 107t24.5 126v1097q0 68 -24.5 126t-72.5 107v0zM878 146q-121 0 -228 46t-186 125.5t-125 186t-46 227.5q0 122 46 228.5t125 186t186 125.5
t228 46t227.5 -46t186 -125.5t125.5 -186t46 -228.5q0 -121 -46 -227.5t-125.5 -186t-186 -125.5t-227.5 -46v0zM648 1103q-19 0 -33 -14t-14 -33q0 -20 14 -34t33 -14q20 0 34 14t14 34q0 19 -14 33t-34 14z" />
    <glyph glyph-name="uniE842" unicode="&#xe842;" 
d="M1024 1609q-46 0 -86 -17t-70 -47t-47 -70t-17 -86q0 -54 24 -99.5t64 -75.5q0 54 39 92.5t93 38.5t93 -38.5t39 -92.5q40 30 64 75.5t24 99.5q0 46 -17 86t-47 70t-70 47t-86 17v0zM1156 249q0 -54 -39 -92.5t-93 -38.5t-93 38.5t-39 92.5q-40 -30 -64 -75.5t-24 -99.5
q0 -46 17 -86t47 -70t70 -47t86 -17t86 17t70 47t47 70t17 86q0 54 -24 99.5t-64 75.5v0zM1682 952q-54 0 -100 -24.5t-76 -64.5q55 0 93 -38.5t38 -93.5q0 -54 -38 -92.5t-93 -39.5q30 -40 76 -64t100 -24q45 0 85 17.5t70 47.5t47.5 70t17.5 85q0 46 -17.5 86t-47.5 70
t-70 47.5t-85 17.5v0zM411 731q0 55 38 93.5t93 38.5q-30 40 -76 64.5t-100 24.5q-45 0 -85 -17.5t-70 -47.5t-47.5 -70t-17.5 -86q0 -45 17.5 -85t47.5 -70t70 -47.5t85 -17.5q54 0 100 24t76 64q-55 1 -93 39.5t-38 92.5v0zM1645 1352q-33 32 -73.5 48.5t-82.5 16.5
t-83 -16.5t-73 -48.5q-38 -38 -53 -87.5t-8 -98.5q-1 0 -1 -0.5v-0.5q-39 -39 -39 -93.5t39 -93.5q38 -39 93 -39t94 39v0.5v0.5q50 -7 99.5 8.5t87.5 53.5q32 32 48 72.5t16 83t-16 83t-48 72.5v0zM777 298q39 39 39 93.5t-39 93.5q-38 38 -93 38t-94 -38v-1v0
q-50 7 -99.5 -8.5t-87.5 -53.5q-32 -32 -48 -72.5t-16 -83t16 -83t48 -72.5q33 -32 73.5 -48.5t82.5 -16.5t83 16.5t73 48.5q38 38 53 87.5t8 98.5q1 0 1 0.5v0.5v0zM777 1165v0.5t-1 0.5q7 49 -8 98.5t-53 87.5q-32 32 -73 48.5t-83 16.5t-82.5 -16.5t-73.5 -48.5
q-32 -32 -48 -72.5t-16 -83t16 -83t48 -72.5q38 -38 87.5 -53.5t99.5 -8.5v-0.5v-0.5q39 -39 94 -39t93 39q39 39 39 93.5t-39 93.5v0zM1645 422q-38 38 -87.5 53.5t-99.5 8.5v0v1q-39 38 -94 38t-93 -38q-39 -39 -39 -93.5t39 -93.5v-0.5t1 -0.5q-7 -49 8 -98.5t53 -87.5
q32 -32 73 -48.5t83 -16.5t82.5 16.5t73.5 48.5q32 32 48 72.5t16 83t-16 83t-48 72.5v0z" />
    <glyph glyph-name="uniE843" unicode="&#xe843;" horiz-adv-x="1755" 
d="M1659 1513q-48 48 -106.5 72t-126.5 24h-1097q-68 0 -126 -24t-106 -72q-49 -49 -73 -107t-24 -126v-1097q0 -68 24 -126.5t73 -106.5q48 -48 106 -72t126 -24h1097q68 0 126.5 24t106.5 72q48 49 72.5 107t24.5 126v1097q0 68 -24.5 126t-72.5 107v0zM1135 1249
q54 53 130 53t130 -53q54 -54 54 -130t-54 -130q-32 -32 -73 -44.5t-82 -6.5l-0.5 -0.5l-0.5 -0.5q-32 -32 -77.5 -32t-78.5 32q-32 32 -32 78t32 78h1v0q-6 42 7 83t44 73v0zM878 1463q76 0 129.5 -54t53.5 -130q0 -45 -20 -83t-53 -63q-1 46 -33 77.5t-77 31.5
q-46 0 -78 -31.5t-32 -77.5q-34 25 -54 63t-20 83q0 76 54 130t130 54v0zM361 1249q53 53 129 53t130 -53q32 -32 44.5 -73t6.5 -83h1v0q32 -32 32 -78t-32 -78t-77.5 -32t-78.5 32v0.5v0.5q-42 -6 -83 6.5t-72 44.5q-54 54 -54 130t54 130v0zM146 731q0 76 54 130t130 54
q45 0 83 -20t63 -54q-45 0 -77 -32t-32 -78q0 -45 32 -77t77 -33q-25 -33 -63 -53t-83 -20q-76 0 -130 53.5t-54 129.5v0zM620 214q-54 -54 -130 -54t-129 54q-54 54 -54 130t54 130q31 31 72 44t83 7v0.5v0.5q33 32 78.5 32t77.5 -32t32 -78t-32 -78v0l-1 -1
q6 -41 -6.5 -82t-44.5 -73zM878 0q-76 0 -130 53.5t-54 129.5q0 45 20 83t54 64q0 -46 32 -78t78 -32q45 0 77 32t33 78q33 -26 53 -64t20 -82q0 -77 -53.5 -130.5t-129.5 -53.5v0zM1395 214q-54 -54 -130 -54t-130 54q-31 32 -44 73t-7 82v1h-1q-32 32 -32 78t32 78
q33 32 78.5 32t77.5 -32l0.5 -0.5l0.5 -0.5q41 6 82 -7t73 -44q54 -54 54 -130t-54 -130v0zM1426 548q-45 0 -83 20t-63 53q45 1 77 33t32 77q0 46 -32 78t-77 32q25 34 63 54t83 20q76 0 129.5 -54t53.5 -130t-53.5 -129.5t-129.5 -53.5v0z" />
    <glyph glyph-name="uniE844" unicode="&#xe844;" 
d="M684 1168q-94 -60 -171 -138t-131.5 -168t-84.5 -190.5t-30 -205.5q0 -127 48 -238.5t131 -194.5t194.5 -131t238.5 -48t238.5 48t194.5 131t131.5 194.5t48.5 238.5q0 98 -29.5 187.5t-81.5 164t-124.5 131.5t-159.5 90q-33 12 -96.5 28.5t-120.5 11.5
q-41 -26 -85.5 -65t-85.5 -85.5t-76.5 -99t-59.5 -106.5q35 42 79 72.5t93 48.5t99.5 23t99.5 -3q72 -11 134 -46.5t107.5 -88.5t71.5 -120.5t26 -142.5q0 -83 -32 -156.5t-86.5 -128.5t-128 -86.5t-157.5 -31.5q-46 0 -89 10t-82.5 28t-73.5 44.5t-62 58.5q-41 48 -67 98
t-39.5 100.5t-15 102t6.5 101.5q29 178 139.5 318.5t262.5 245.5t326.5 175.5t331.5 109.5q-51 -27 -120 -62t-144.5 -76.5t-151 -87.5t-140.5 -94q189 -73 307.5 -43.5t203 109t153 181t156.5 172.5q-89 35 -271.5 51t-365.5 -17t-321.5 -130.5t-138.5 -289.5v0z" />
    <glyph glyph-name="uniE845" unicode="&#xe845;" 
d="M1659 1513q-48 48 -106.5 72t-126.5 24h-1097q-68 0 -126 -24t-106 -72q-49 -49 -73 -107t-24 -126v-1097q0 -68 24 -126.5t73 -106.5q48 -48 106 -72t126 -24h1097q68 0 126.5 24t106.5 72q48 49 72.5 107t24.5 126v1097q0 68 -24.5 126t-72.5 107v0zM836 1000
q43 33 93.5 63.5t100.5 58t96 51t80 41.5q-104 -26 -220.5 -73t-218 -117t-175 -163.5t-92.5 -212.5q-11 -68 5.5 -136t71.5 -132q37 -43 90 -68.5t114 -25.5q56 0 105 21t85.5 57.5t57.5 85.5t21 105q0 50 -17 94.5t-47.5 80t-71.5 59t-89 31.5q-66 11 -133.5 -13.5
t-114.5 -80.5q16 36 39.5 71t51 66t57 57t57.5 43q38 4 80 -7t65 -20q57 -22 105.5 -59.5t83.5 -87.5t54.5 -109.5t19.5 -124.5q0 -85 -32.5 -159.5t-87.5 -130t-129.5 -87.5t-159.5 -32q-84 0 -158.5 32t-130 87.5t-87.5 130t-32 159.5q0 70 20 136.5t56.5 127t87.5 112
t114 92.5q0 128 92 193t214.5 87t244 11t181.5 -34q-59 -47 -105 -115t-102 -121t-135 -72.5t-205 28.5v0z" />
    <glyph glyph-name="uniE846" unicode="&#xe846;" 
d="M1139 768q37 10 70.5 29t61.5 45q34 31 59.5 67t42.5 77t25.5 87t8.5 98q1 53 -9 106t-30 102q-18 45 -47 84.5t-66 70.5q-34 28 -72.5 47t-81.5 28h-309v-861h136q68 0 121 5t90 15v0zM1451 1609q26 -11 49.5 -25.5t45.5 -31.5q49 -38 86 -81.5t61.5 -93.5t37 -106
t12.5 -118q0 -64 -12.5 -119t-37.5 -101.5t-62.5 -84.5t-87.5 -67q-52 -31 -115 -49t-137 -25q-24 -2 -80.5 -3t-146.5 -1h-272v-497q0 -71 4 -123.5t12 -86.5q7 -32 22 -61t37 -52q8 -8 16 -15.5t17 -13.5h1002v1755h-451v0zM442 1516q-16 26 -39.5 47t-51.5 35
q-7 3 -13.5 6t-12.5 5h-179v-1755h234q9 6 17.5 13.5t15.5 15.5q23 23 38 51.5t22 60.5q7 34 11 86.5t4 124.5v1021q1 46 -1.5 92t-8.5 92q-4 28 -13 54.5t-23 50.5v0z" />
    <glyph glyph-name="uniE847" unicode="&#xe847;" 
d="M1659 1513q-48 48 -106.5 72t-126.5 24h-1097q-68 0 -126 -24t-106 -72q-49 -49 -73 -107t-24 -126v-1097q0 -68 24 -126.5t73 -106.5q48 -48 106 -72t126 -24h1097q68 0 126.5 24t106.5 72q48 49 72.5 107t24.5 126v1097q0 68 -24.5 126t-72.5 107v0zM520 381
q0 -48 -2.5 -83t-7.5 -58q-4 -21 -14 -40t-26 -34q-5 -6 -10.5 -10.5t-11.5 -9.5h-155v1171h118q5 -2 9.5 -4t8.5 -4q19 -9 34.5 -23t26.5 -32q9 -16 15 -33.5t8 -35.5q4 -31 6 -61.5t1 -61.5v-681v0zM723 1317h206q28 -7 54 -19.5t48 -31.5q25 -20 44.5 -46.5t31.5 -56.5
q13 -33 19.5 -68t6.5 -71q0 -68 -22.5 -123t-67.5 -96q-19 -17 -41.5 -30t-47.5 -19q-24 -7 -59.5 -10.5t-81.5 -3.5h-90v575v0zM1463 146h-668q-6 5 -11.5 9.5t-10.5 10.5q-15 15 -25 34.5t-14 40.5q-6 23 -8.5 58t-2.5 82v332h181q60 0 98 0.5t54 1.5q49 5 91 17t77 32
q66 40 99.5 102t33.5 146q0 83 -33 149.5t-98 116.5q-15 12 -31 21.5t-32 17.5h300v-1171v0z" />
    <glyph glyph-name="uniE848" unicode="&#xe848;" 
d="M1435 1437q-34 34 -72 61.5t-79 48.5t-86 35.5t-93 21.5q-41 7 -111 5t-108 -11q-92 -21 -171.5 -66.5t-140.5 -109.5t-101.5 -143.5t-55.5 -170.5q-2 -12 -3 -41.5t-1.5 -99t-1 -190.5t-0.5 -314v0v-609h209v352q0 301 3.5 329.5t35.5 4.5q47 -36 105 -63t117 -40
q49 -12 115 -14t117 7q48 8 89 22t85 37q45 23 82 50.5t74 65.5q48 50 80.5 103.5t54.5 118.5q27 81 30.5 164t-15 162t-58.5 151.5t-100 132.5v0zM1380 913q-11 -42 -30 -79.5t-45.5 -69.5t-60 -57.5t-72.5 -43.5q-34 -16 -60.5 -23.5t-63.5 -12.5q-15 -1 -28.5 -2
t-16.5 -1q-56 3 -106.5 19t-93.5 43.5t-77 66t-58 86.5q-19 36 -28.5 76t-10.5 81t6 81.5t23 77.5q15 36 30.5 59.5t39.5 49.5q37 40 80.5 67.5t96.5 43.5q25 8 41.5 9.5t62.5 1.5q44 0 61.5 -1.5t38.5 -7.5q51 -15 95.5 -41.5t79.5 -63t60 -81.5t38 -96q10 -40 9.5 -90.5
t-11.5 -91.5v0z" />
    <glyph glyph-name="uniE849" unicode="&#xe849;" 
d="M944 1162q-15 4 -26.5 5t-40.5 1q-31 0 -42 -1t-27 -7q-36 -11 -65 -29t-54 -45q-16 -17 -26 -32.5t-20 -39.5q-21 -49 -19.5 -105.5t25.5 -105.5q32 -64 90.5 -101.5t133.5 -41.5q2 0 11 0.5t19 1.5q25 3 42.5 8t40.5 16q52 24 88 67t50 99q7 28 7.5 61.5t-5.5 60.5
q-17 68 -65.5 118t-116.5 70v0zM1659 1513q-48 48 -106.5 72t-126.5 24h-1097q-68 0 -126 -24t-106 -72q-49 -49 -73 -107t-24 -126v-1097q0 -68 24 -126.5t73 -106.5q48 -48 106 -72t126 -24h1097q68 0 126.5 24t106.5 72q48 49 72.5 107t24.5 126v1097q0 68 -24.5 126
t-72.5 107v0zM1256 795q-14 -43 -36 -79t-54 -69q-25 -25 -49.5 -43.5t-53.5 -33.5q-30 -16 -57.5 -25t-59.5 -14q-33 -6 -77.5 -5t-77.5 9q-39 9 -77.5 27t-70.5 42q-21 16 -23 -3t-2 -220v-235h-140v406v0q0 259 1 337t4 94q9 60 36 113t68 96t93.5 73t114.5 44
q25 6 71.5 7.5t74.5 -3.5q64 -10 119 -38t101 -73q40 -40 66.5 -88.5t39 -101t10 -108t-20.5 -109.5v0z" />
    <glyph glyph-name="uniE850" unicode="&#xe850;" 
d="M1582 1340q-11 26 -26.5 51t-32.5 48q-43 53 -98 95t-121 60q-50 14 -102 15t-102 -10t-97 -33t-88 -53q-18 -13 -33.5 -28.5t-29.5 -31.5q-7 35 -11 71t-12 72q-4 4 -8.5 9t-11.5 4q-18 0 -34.5 -6.5t-32.5 -12.5q-70 -30 -139 -60.5t-138 -60.5q-8 -4 -16 -7t-12 -10
q-2 -10 -2 -20t1 -20q5 -9 14 -14.5t17 -10.5q23 -13 46 -24.5t42 -28.5q18 -15 27.5 -36t10.5 -43q1 -8 1.5 -15.5t0.5 -14.5v-272v-272.5v-272.5v-272q-2 -34 -2 -68.5t-5 -68.5q-3 -16 -12.5 -31.5t-27.5 -18.5q-26 -2 -52.5 -0.5t-52.5 -1.5q-7 0 -9.5 -6t-2.5 -12
v-31.5v-31.5q0 -4 3.5 -6.5t6.5 -5.5q49 1 98 3.5t98 3.5q47 1 94 1t93.5 -1t93.5 -2.5t94 -4.5q7 0 16.5 1.5t10.5 10.5q2 17 2 33.5t-2 33.5q0 8 -6 11.5t-12 3.5q-21 1 -41 0.5t-40 -0.5q-12 1 -24.5 0.5t-23.5 5.5q-10 7 -15 18.5t-8 23.5q-8 42 -7.5 85.5t-1.5 87.5
q0 48 -1 96t-1.5 96t-1 96.5t-0.5 96.5q40 -18 83 -28t86 -14q75 -7 150.5 8t142.5 51q42 23 78.5 53t67.5 65.5t56 76t44 84.5q28 68 41 141.5t12 147.5q0 51 -7.5 102t-27.5 99v0zM1338 810q-15 -54 -46 -102t-81 -75q-43 -24 -91.5 -24.5t-94.5 8.5q-35 7 -67 24.5
t-60 41.5q-23 22 -32.5 54t-9.5 64v138v138.5v139t1 138.5q31 44 79 71.5t101 34.5q50 7 100 -8.5t87 -51.5q49 -48 75.5 -111.5t40.5 -129.5q9 -43 14 -87t5.5 -88.5t-4.5 -88.5t-17 -86v0z" />
    <glyph glyph-name="uniE851" unicode="&#xe851;" 
d="M1011 1178q-24 24 -57.5 34.5t-67.5 5.5q-35 -5 -67 -23.5t-53 -47.5v-92.5v-92.5v-92v-92q0 -22 6 -43t22 -36q18 -16 39.5 -27.5t45.5 -16.5q30 -6 62.5 -5.5t60.5 16.5q34 18 54.5 50t30.5 68q16 57 14.5 116t-12.5 117q-10 44 -27.5 86.5t-50.5 74.5v0zM1659 1513
q-48 48 -106.5 72t-126.5 24h-1097q-68 0 -126 -24t-106 -72q-49 -49 -73 -107t-24 -126v-1097q0 -68 24 -126.5t73 -106.5q48 -48 106 -72t126 -24h1097q68 0 126.5 24t106.5 72q48 49 72.5 107t24.5 126v1097q0 68 -24.5 126t-72.5 107v0zM1237 810q-24 -58 -66 -106.5
t-97 -78.5q-45 -25 -95 -35t-101 -5q-29 3 -57 9.5t-55 18.5q0 -64 1 -128.5t1 -128.5q2 -29 1.5 -58t5.5 -57q2 -8 5 -15.5t10 -12.5q7 -4 15.5 -4h15.5q14 0 27.5 0.5t26.5 -0.5q5 0 9 -2.5t4 -7.5q1 -11 1 -22t-1 -23q-1 -6 -7 -7t-11 -1q-63 4 -125.5 5t-124.5 0
q-33 0 -65.5 -2t-65.5 -3l-4 4t-2 5q-1 10 -1 20.5v20.5q0 4 2 8t6 5q18 1 35.5 0.5t35.5 0.5q11 2 17.5 12t8.5 21q4 23 3.5 46t1.5 46v181v181.5v181.5v181q0 5 -0.5 10t-0.5 10q-1 15 -7.5 29t-18.5 24q-13 11 -28 19l-30 16q-6 4 -12 7.5t-9 9.5q-1 7 -1 13.5t1 13.5
q3 5 8.5 7t10.5 4q46 20 92 40.5t93 40.5q10 4 21 8t23 4q5 1 8 -2l6 -6q5 -24 7.5 -48t7.5 -48q10 11 20 21.5t22 18.5q54 42 123.5 57.5t135.5 -2.5q44 -12 81 -40t65 -64q12 -15 22 -31.5t18 -34.5q13 -32 18 -66t5 -68q1 -49 -7.5 -98t-28.5 -95v0z" />
    <glyph glyph-name="uniE852" unicode="&#xe852;" 
d="M696 1089q5 172 -34.5 275t-88.5 157.5t-91 71l-42 16.5v-143q-80 40 -145 50.5l-65 10.5v-1166l70 1t154 -30t154.5 -112t70.5 -245l41 96.5t163.5 151t345.5 -3t587 -365.5q0 105 0.5 277t0.5 353.5t0.5 344.5t0.5 251q-336 245 -553 277t-343.5 -27.5t-176 -150
l-49.5 -90.5v0zM1552 295l-57 446h-2l-186 -446h-81l-178 446h-2l-64 -446h-201l132 775h198l158 -414l166 414h201l117 -775h-201v0z" />
    <glyph glyph-name="uniE853" unicode="&#xe853;" horiz-adv-x="1755" 
d="M804 957l-88 -517h133l44 298h1l119 -298h53l124 298h2l37 -298h135l-78 517h-134l-111 -276l-105 276h-132v0zM1659 1513q-48 48 -106.5 72t-126.5 24h-1097q-68 0 -126 -24t-106 -72q-49 -49 -73 -107t-24 -126v-1097q0 -68 24 -126.5t73 -106.5q48 -48 106 -72
t126 -24h1097q68 0 126.5 24t106.5 72q48 49 72.5 107t24.5 126v1097q0 68 -24.5 126t-72.5 107v0zM1406 146q-243 206 -391.5 244t-230 2t-109.5 -100.5l-28 -64.5q0 110 -46.5 163.5t-102.5 74.5t-103 20l-47 -1v778l43.5 -7t97.5 -34v96l27.5 -11.5t60.5 -47.5t59 -104.5
t23 -183.5l33 60t117.5 99.5t229 18.5t368.5 -184v-167.5t-0.5 -229.5t-0.5 -235.5v-185.5z" />
    <glyph glyph-name="uniE854" unicode="&#xe854;" 
d="M1195 23q-36 39 -76 88t-82.5 107t-85 123t-81.5 135q65 15 120 51t95.5 85.5t63 108.5t22.5 120q0 89 -33 155t-90.5 109t-136 64.5t-169.5 21.5q-94 0 -172 -3.5t-148 -3.5q-64 0 -124 0.5t-100 1.5v-62l81 -15q42 -8 64.5 -38.5t22.5 -129.5v-841q0 -99 -22.5 -129.5
t-64.5 -38.5l-81 -15v-62q43 1 113 3.5t145 2.5q36 0 76 -0.5t77 -1.5t68.5 -2t51.5 -2v62l-111 15q-43 6 -65 37.5t-22 130.5v356q38 -3 75.5 -3.5t88.5 -0.5q49 -87 96 -163t89 -138t77.5 -109.5t62.5 -77.5q24 -29 54 -52.5t66 -40t77.5 -25t87.5 -8.5q28 0 54.5 4.5
t44.5 12.5v55q-58 0 -113 34.5t-96 78.5v0zM685 548q-55 0 -86 1.5t-68 5.5v535q37 3 83 4t90 1q67 0 120 -17.5t90 -51t56.5 -83t19.5 -113.5q0 -63 -21 -115t-60.5 -89t-96 -57.5t-127.5 -20.5zM1336 1087q-2 8 -3.5 18t-2.5 21q-1 12 -2 25.5t-2 28.5q0 16 -0.5 35
t-0.5 41t0.5 41t0.5 35q1 16 2 29.5t2 24.5t2.5 21t3.5 18q1 9 3.5 17t4.5 16q14 41 36.5 72.5t54.5 52.5q31 21 69.5 31.5t84.5 10.5q24 0 45.5 -2.5t40.5 -8.5q18 -5 35 -13t32 -17q14 -10 27 -21.5t23 -24.5q11 -12 19.5 -26t15.5 -29q2 -5 1.5 -8.5t-4.5 -6.5l-78 -32
q-5 -2 -8.5 -1t-6.5 7q-13 24 -25.5 40.5t-30.5 28.5q-19 11 -38 16.5t-48 5.5q-30 0 -47.5 -6.5t-37.5 -19.5q-19 -14 -32.5 -32t-22.5 -43q-1 -5 -2.5 -11t-3.5 -12q-2 -7 -3 -15.5t-2 -18.5q0 -10 -1 -22.5t-1 -26.5q-1 -14 -1 -32v-38v-37.5t1 -32.5q0 -14 1 -26.5
t1 -22.5q1 -10 2 -18.5t3 -14.5q2 -7 3.5 -13l2.5 -10q9 -26 21 -41.5t29 -27.5q17 -11 38.5 -18.5t51.5 -7.5q28 0 51.5 7t40.5 19q16 12 28.5 28t18.5 37q3 9 6 20.5t5 25.5q2 13 2.5 28.5t0.5 35.5q0 3 -1.5 4.5t-4.5 1.5h-125q-5 0 -7.5 2.5t-2.5 8.5v71q0 5 2.5 8
t7.5 3h228q6 0 8.5 -3t2.5 -8v-61q0 -24 -0.5 -46.5t-2.5 -43.5q-3 -21 -6 -38.5t-7 -30.5q-14 -41 -35 -71t-53 -52t-72 -33.5t-85 -11.5q-46 0 -84.5 10.5t-69.5 31.5q-32 21 -54.5 52.5t-36.5 72.5q-2 8 -4.5 16t-3.5 17v0z" />
    <glyph glyph-name="uniE855" unicode="&#xe855;" horiz-adv-x="1755" 
d="M1659 1513q-48 48 -106.5 72t-126.5 24h-1097q-68 0 -126 -24t-106 -72q-49 -49 -73 -107t-24 -126v-1097q0 -68 24 -126.5t73 -106.5q48 -48 106 -72t126 -24h1097q68 0 126.5 24t106.5 72q48 49 72 107t24 126v1097q0 68 -24 126t-72 107v0zM1157 159
q-13 -6 -32.5 -9.5t-39.5 -3.5q-68 0 -121.5 25.5t-88.5 67.5q-20 22 -46.5 57t-57 81t-65 102t-70.5 120q-38 0 -65.5 0.5t-55.5 2.5v-262q0 -74 16 -97t48 -28l82 -11v-45q-30 1 -89 3t-112 2q-56 0 -107.5 -2t-83.5 -3v45l60 11q31 6 48 28.5t17 96.5v619q0 73 -17 95.5
t-48 28.5l-60 11v46q30 -2 74 -2h91q52 0 109.5 2.5t126.5 2.5q67 0 125 -15.5t100.5 -47.5t66.5 -80.5t24 -114.5q0 -45 -16.5 -88.5t-46.5 -79.5t-70.5 -63t-88.5 -38q29 -51 60.5 -99t62.5 -90.5t60.5 -79t55.5 -64.5q31 -33 71.5 -58t82.5 -25v-41zM1486 1160
q0 -18 -0.5 -34.5t-1.5 -31.5q-2 -15 -4.5 -28.5t-5.5 -22.5q-10 -30 -25.5 -52.5t-39.5 -38.5q-23 -16 -52.5 -24.5t-62.5 -8.5q-34 0 -62.5 8t-51.5 23q-23 16 -39.5 39t-26.5 53q-2 6 -3.5 12t-3.5 12l-2 14t-2 15q-1 9 -1.5 19t-1.5 21v26v30v30v26q1 11 1.5 21t1.5 19
q1 8 2 15.5t2 13.5q2 6 3.5 12t3.5 12q10 30 26.5 53t39.5 39q23 15 51.5 23t62.5 8q17 0 33 -2t30 -6t26 -10t23 -13t20.5 -15.5t17.5 -17.5q7 -10 13.5 -20t11.5 -21q2 -3 1.5 -6t-3.5 -5l-58 -23q-3 -2 -5.5 -1t-4.5 5q-10 17 -19.5 29.5t-22.5 20.5q-14 9 -28 13t-35 4
q-22 0 -35 -4.5t-27 -14.5t-24.5 -23.5t-16.5 -32.5l-2.5 -7.5t-2.5 -9.5t-2 -11t-1 -13q-1 -8 -1.5 -17t-0.5 -19q0 -11 -0.5 -24t-0.5 -28t0.5 -28t0.5 -23q0 -11 0.5 -20t1.5 -16q0 -8 1 -14t2 -11t2.5 -9.5l2.5 -7.5q6 -19 15 -30.5t22 -19.5q12 -9 28 -14.5t38 -5.5
q20 0 37.5 5.5t29.5 13.5q12 9 21.5 21t13.5 27q2 7 4.5 15.5t3.5 18.5q2 10 2 21v26q0 2 -1 3.5t-3 1.5h-92q-4 0 -5.5 2t-1.5 5v53q0 4 1.5 6t5.5 2h168q4 0 6 -2t2 -6v-45v0zM852 877q0 94 -55.5 144.5t-154.5 50.5q-32 0 -66 -0.5t-61 -2.5v-395q27 -2 50 -3t63 -1
q52 0 93.5 15t71 42t44.5 65.5t15 84.5v0z" />
    <glyph glyph-name="uniE856" unicode="&#xe856;" 
d="M591 461q-35 39 -53 111.5t-18 177.5v193q0 98 -15 167t-46 109q-31 41 -82.5 61t-122.5 20q-16 0 -30.5 -0.5t-27.5 -1.5t-25.5 -2.5t-24.5 -4.5v-51h38q32 0 54.5 -10.5t35.5 -30.5q12 -20 18.5 -67t6.5 -120v-239q0 -55 8.5 -104t25.5 -91t43 -77.5t61 -64.5
q51 -44 122 -72t162 -42v36v35q-43 11 -76 28t-54 40v0zM1457 461q35 39 53 111.5t18 177.5v193q0 98 15 167t46 109q31 41 82.5 61t122.5 20q16 0 30.5 -0.5t27.5 -1.5t25.5 -2.5t24.5 -4.5v-51h-37q-33 0 -55.5 -10.5t-35.5 -30.5q-12 -20 -18.5 -67t-6.5 -120v-239
q0 -55 -8.5 -104t-25.5 -91t-43 -77.5t-61 -64.5q-51 -44 -122 -72t-162 -42v36v35q43 11 76 28t54 40v0zM1192 1267q23 18 68 28t112 13v41h-696v-41q69 -3 114 -13t67 -28t33 -53t11 -87v-905q0 -54 -11 -90.5t-33 -53.5t-67 -26.5t-114 -10.5v-41h694l2 41q-67 1 -112 11
t-67 29q-22 18 -33.5 53.5t-11.5 87.5v905q0 52 11 87t33 53v0z" />
    <glyph glyph-name="uniE857" unicode="&#xe857;" horiz-adv-x="1755" 
d="M1659 1513q-48 48 -106.5 72t-126.5 24h-1097q-68 0 -126 -24t-106 -72q-49 -49 -73 -107t-24 -126v-1097q0 -68 24 -126.5t73 -106.5q48 -48 106 -72t126 -24h1097q68 0 126.5 24t106.5 72q48 49 72 107t24 126v1097q0 68 -24 126t-72 107v0zM273 814v199q0 61 -5 100
t-16 56q-10 17 -29 25t-46 8h-31v44q10 2 20.5 3t21.5 2t23 1.5t25 0.5q60 0 102.5 -17t68.5 -50q25 -34 38 -91.5t13 -139.5v-160q0 -88 14.5 -148.5t44.5 -92.5q17 -20 44.5 -34t63.5 -23v-29.5v-29.5q-75 11 -134.5 35t-102.5 60q-57 48 -86 118.5t-29 162.5v0zM1166 170
h-579v34q58 1 95.5 8.5t56.5 22.5q18 14 27 44t9 76v754q0 43 -9 72.5t-27 44.5q-19 14 -56.5 22.5t-95.5 10.5v34h581v-34q-56 -2 -93.5 -10.5t-56.5 -22.5q-18 -15 -27.5 -44.5t-9.5 -72.5v-754q0 -44 9.5 -73.5t28.5 -44.5q18 -15 55.5 -23.5t93.5 -9.5zM1609 1202h-31
q-27 0 -46 -8t-29 -25t-15.5 -56t-5.5 -100v-199q0 -92 -28.5 -162.5t-86.5 -118.5q-43 -36 -102 -60t-135 -35v29.5v29.5q36 9 63.5 23t45.5 34q29 32 44 92.5t15 148.5v160q0 82 12.5 139.5t38.5 91.5q25 33 68 50t103 17q13 0 25 -0.5t23 -1.5t21 -2t20 -3v-44v0z" />
    </font>
</defs>
</svg>
