<svg viewBox="0 0 16 16" width="16px" height="16px"><path fill="#828282" 
     d="M 14.208272,1.8945956 V 0.77639283 L 15.013381,0.1501979 H 6.2734915 L 0.986619,4.739311 H 4.49331 Q 4.48432,4.801929 4.48432,4.8645509 V 4.998735 q 0,0.6351396 0.2191677,1.1629319 0.2192057,0.5277923 0.6664869,0.9571835 0.4383369,0.420445 0.9840178,0.6306674 0.5456852,0.210222 1.1987174,0.210222 0.1520766,0 0.2996772,-0.00895 0.1476045,-0.00895 0.290733,-0.035781 -0.089455,0.2057503 -0.1341841,0.3891354 -0.044726,0.183386 -0.044726,0.3533527 0,0.3041517 0.1386563,0.6261953 0.1386562,0.3220425 0.4070247,0.6709228 -0.5993547,0.04473 -1.1226748,0.116295 -0.5233201,0.07157 -0.9616578,0.178913 -0.4383345,0.107346 -0.8006322,0.250478 -0.3622994,0.14313 -0.6485599,0.322044 -0.3220434,0.196804 -0.581466,0.447282 -0.2594236,0.250477 -0.4562292,0.554629 -0.1968037,0.304152 -0.2952065,0.630668 -0.0984,0.326515 -0.0984,0.675395 0,0.295206 0.062622,0.563576 0.062632,0.268373 0.1968095,0.50096 0.1252388,0.241532 0.2907316,0.433862 0.1654947,0.192333 0.3712453,0.344408 0.2057487,0.152075 0.4428083,0.277315 0.2370605,0.125239 0.5054291,0.232586 0.2683705,0.0984 0.5367388,0.17444 0.2683689,0.07604 0.5367356,0.111816 0.2594235,0.04473 0.5233197,0.06262 0.2638961,0.0179 0.5233201,0.0179 0.4115005,0 0.8274733,-0.05369 0.4159698,-0.05368 0.8274668,-0.152077 0.4204449,-0.107346 0.8095808,-0.268368 0.3891366,-0.161021 0.7559066,-0.366771 0.366772,-0.214695 0.661977,-0.496483 0.295206,-0.281787 0.518848,-0.639614 0.223639,-0.357824 0.339935,-0.760379 0.116291,-0.402554 0.116291,-0.849835 0,-0.339934 -0.07157,-0.644086 -0.07157,-0.304151 -0.205751,-0.590413 -0.134171,-0.277301 -0.30414,-0.505417 Q 11.640877,10.294555 11.444071,10.115643 11.23832,9.93673 11.041518,9.7757093 10.844712,9.6146872 10.64791,9.4626112 10.44216,9.3194809 10.276667,9.1674051 10.111169,9.0153304 9.968041,8.8632535 9.8338569,8.7022321 9.766763,8.5501563 9.6996721,8.3980804 9.6996721,8.2460046 q 0,-0.1520765 0.049202,-0.2952061 Q 9.798076,7.8076681 9.9054233,7.6645377 10.01277,7.5214076 10.142483,7.3872232 10.272195,7.2530386 10.424268,7.118854 10.576345,6.9846692 10.728421,6.8415395 10.880498,6.6984073 11.032574,6.5373864 11.184647,6.3853133 11.309886,6.179563 q 0.125241,-0.2057502 0.232588,-0.4562298 0.107347,-0.2504758 0.161021,-0.5367367 0.05368,-0.2862608 0.05368,-0.5993584 0,-0.4115006 -0.07604,-0.751435 -0.07604,-0.3399345 -0.228111,-0.6083028 -0.0179,-0.03577 -0.04026,-0.062618 -0.02238,-0.026855 -0.04026,-0.062623 l 2.325868,-1.9054194 v 0.6977583 q -0.223639,0.026858 -0.246003,0.1476046 -0.02238,0.1207677 -0.02238,0.2817887 v 5.2689807 q 0,0.1789126 0.129712,0.3086242 0.129711,0.1297117 0.30862,0.1297117 h 0.16997 q 0.178913,0 0.308625,-0.1297117 0.129709,-0.1297116 0.129709,-0.3086242 V 2.3239915 q 0,-0.161021 -0.02238,-0.2817887 -0.02237,-0.1207639 -0.246007,-0.1476046 z M 9.8159647,10.992312 q 0.03577,0.02684 0.1162958,0.08499 0.080512,0.05815 0.2057465,0.165495 0.12524,0.0984 0.205751,0.174441 0.08051,0.07604 0.12524,0.120763 0.04473,0.05369 0.11182,0.129711 0.06709,0.07604 0.156548,0.183387 0.08051,0.0984 0.13866,0.192331 0.05815,0.09392 0.09392,0.165494 0.02686,0.07156 0.05815,0.165495 l 0.0671,0.201277 q 0.02682,0.107346 0.04026,0.214695 0.01343,0.107347 0.01343,0.214695 0,0.518847 -0.201277,0.907982 -0.201275,0.389136 -0.594884,0.639614 -0.4025575,0.250477 -0.8856205,0.375717 -0.4830631,0.125237 -1.0376958,0.125237 -0.2773127,0 -0.5546292,-0.03132 Q 7.5974589,14.991002 7.3201426,14.92839 7.0517743,14.856822 6.7923502,14.758423 6.5329269,14.660023 6.2824511,14.534781 6.0409164,14.400597 5.8396396,14.217212 5.6383637,14.033825 5.486288,13.801239 5.3342122,13.568652 5.2581724,13.300283 q -0.076041,-0.268368 -0.076041,-0.572521 0,-0.313097 0.084987,-0.590412 0.084977,-0.277305 0.2638955,-0.509891 0.1699668,-0.232595 0.3936084,-0.407034 0.2236393,-0.17444 0.5009558,-0.299679 0.2862603,-0.116294 0.5680491,-0.20575 0.2817848,-0.08945 0.5591013,-0.134185 0.2862608,-0.05368 0.5769938,-0.08051 0.2907329,-0.02684 0.5859381,-0.02684 0.1431322,0 0.2504795,0.0089 0.1073471,0.009 0.1789136,0.0179 0.017904,0.0089 0.093926,0.0671 0.076038,0.05815 0.2191706,0.165496 0.1431286,0.107347 0.2370594,0.169967 0.093926,0.06262 0.1207638,0.08947 z M 9.6817805,6.877317 Q 9.4581415,7.1546327 9.140568,7.2888172 8.8229982,7.4230017 8.4204457,7.4230017 q -0.3667713,0 -0.6888133,-0.1476025 Q 7.4095904,7.1277958 7.1412183,6.8325914 6.8639057,6.5463307 6.6670998,6.2153406 6.4702978,5.8843505 6.3450573,5.5086348 6.2287643,5.1418635 6.1661451,4.7750923 6.1035271,4.408321 6.1035271,4.0504978 q 0,-0.420445 0.1118213,-0.7782719 0.1118168,-0.3578268 0.326512,-0.653032 0.223643,-0.2952051 0.5412128,-0.4428097 0.3175698,-0.1476007 0.7290703,-0.1476007 0.3667713,0 0.6843412,0.1565487 0.3175697,0.1565452 0.6038306,0.4606984 0.2773163,0.3130976 0.4741185,0.6619765 0.1968023,0.3488824 0.3220421,0.7335425 0.1162961,0.3846638 0.1789131,0.7514351 0.06262,0.3667713 0.06262,0.7156501 0,0.4115006 -0.116292,0.7559073 Q 9.9054253,6.6089486 9.6817825,6.877317 Z"
     />
</svg>
