<svg viewBox="0 0 16 16" width="16px" height="16px"><path fill="#828282" 
     d="M 14.836202,0 H 1.1854503 C 0.53179693,0 0.002,0.51363527 0.002,1.1475892 V 14.86902 c 0,0.633992 0.52998313,1.148074 1.1834503,1.148074 H 14.836202 c 0.653505,0 1.182706,-0.514417 1.182706,-1.148074 V 1.1475892 C 16.018908,0.51382146 15.489707,0 14.836202,0 Z M 4.8578698,13.407396 H 2.4378296 V 6.1758749 H 4.8578698 Z M 3.6480917,5.1879285 h -0.016273 c -0.8115459,0 -1.3376189,-0.5550076 -1.3376189,-1.249847 0,-0.7088414 0.5415271,-1.2488044 1.3691602,-1.2488044 0.8277077,0 1.3368371,0.5398142 1.3529242,1.2488044 0,0.6949883 -0.5250304,1.249847 -1.3681925,1.249847 z M 13.581403,13.407396 H 11.162144 V 9.5382811 c 0,-0.9721943 -0.350529,-1.6355669 -1.2254182,-1.6355669 -0.6692936,0 -1.0665948,0.4475363 -1.2410587,0.8796186 -0.064647,0.1543177 -0.080659,0.370154 -0.080659,0.5856923 V 13.407247 H 6.1961964 c 0,0 0.031652,-6.553253 0,-7.2314839 H 8.6153802 V 7.2009856 C 8.9365279,6.7083529 9.5104156,6.0056189 10.795118,6.0056189 c 1.592333,0 2.786285,1.0329681 2.786285,3.2551957 z M 8.5997399,7.2239619 c 0.00413,-0.00678 0.00991,-0.014932 0.015641,-0.022865 v 0.022865 z"
     />
</svg>
