<svg viewBox="0 0 16 16" width="16px" height="16px"><path fill="#828282" 
     d="m 1.5778361,5.7143853 c 0.2010781,0.1418917 0.8072018,0.5633105 1.8184021,1.264039 1.0112315,0.7007286 1.7859042,1.2402717 2.324049,1.6186602 0.059124,0.041476 0.184736,0.1316391 0.3768973,0.2706102 0.1921923,0.1390649 0.3518865,0.2514408 0.4789582,0.3371602 0.1271653,0.085688 0.2808945,0.1818152 0.4613427,0.2882266 0.180386,0.1063173 0.3504262,0.1862889 0.5100897,0.2392305 0.1596942,0.053376 0.3075199,0.079816 0.4435088,0.079816 h 0.00891 0.00895 c 0.1359888,0 0.2838768,-0.026473 0.4435714,-0.079816 C 8.6121128,9.6793707 8.7823081,9.5993058 8.9625389,9.4930815 9.1428633,9.3865462 9.296592,9.2905121 9.4237573,9.2048549 9.5509217,9.1191351 9.7104927,9.0067596 9.9027467,8.8676947 10.094877,8.7285992 10.220644,8.6385616 10.279769,8.5970845 10.823723,8.218696 12.207626,7.2577031 14.431043,5.7141989 c 0.431672,-0.3014617 0.79232,-0.665217 1.082038,-1.0910166 0.289942,-0.4256133 0.434754,-0.8721049 0.434754,-1.3392262 0,-0.3903497 -0.140525,-0.724496 -0.42145,-1.0024077 -0.280894,-0.2779739 -0.61358,-0.4168829 -0.99784,-0.4168829 H 1.4713628 c -0.455315,0 -0.80570985,0.1537292 -1.05112415,0.4611874 -0.24538264,0.3075199 -0.3680734,0.6919046 -0.3680734,1.153123 0,0.3725473 0.16267735,0.7762573 0.4878751,1.2108805 0.3251683,0.4346542 0.67121345,0.7761948 1.03779575,1.0245289 z"
     />
     <path fill="#828282" 
     d="m 15.060678,6.6634164 c -1.939447,1.3126934 -3.412113,2.3328729 -4.417287,3.0603207 -0.337067,0.2482715 -0.610504,0.4420799 -0.8204992,0.5809579 -0.209995,0.138971 -0.4892732,0.280894 -0.8382395,0.425707 -0.3488417,0.145029 -0.6739469,0.217326 -0.9755954,0.217326 h -0.00905 -0.00891 c -0.3015858,0 -0.6268776,-0.0723 -0.9757196,-0.217326 C 6.6665372,10.585589 6.3870725,10.443666 6.1771399,10.304695 5.9672691,10.165817 5.6937382,9.9720086 5.3567029,9.7237371 4.5583242,9.1383364 3.0888264,8.1180949 0.94814645,6.6634164 0.61098575,6.4388502 0.31235124,6.1814445 0.05214925,5.8917264 v 7.0428606 c 0,0.390537 0.13890948,0.724497 0.41688316,1.002439 0.27791154,0.278035 0.61208879,0.417007 1.00240779,0.417007 H 14.528654 c 0.390225,0 0.724372,-0.138972 1.002315,-0.417007 0.278036,-0.278036 0.416882,-0.611872 0.416882,-1.002439 V 5.8917264 c -0.25433,0.2837215 -0.54992,0.5411277 -0.887173,0.77169 z"
     />
</svg>
